<?xml version="1.0" encoding="utf-8"?>
<!-- Generator: Adobe Illustrator 15.0.0, SVG Export Plug-In . SVG Version: 6.00 Build 0)  -->
<!DOCTYPE svg PUBLIC "-//W3C//DTD SVG 1.1//EN" "http://www.w3.org/Graphics/SVG/1.1/DTD/svg11.dtd">
<svg version="1.1" id="Layer_1" xmlns="http://www.w3.org/2000/svg" xmlns:xlink="http://www.w3.org/1999/xlink" x="0px" y="0px"
	 width="1280px" height="81.876px" viewBox="0 0 1280 81.876" enable-background="new 0 0 1280 81.876" xml:space="preserve">
<linearGradient id="SVGID_1_" gradientUnits="userSpaceOnUse" x1="640.0005" y1="81.876" x2="640.0005" y2="0">
	<stop  offset="0" style="stop-color:#BEBEBE"/>
	<stop  offset="0.212" style="stop-color:#D4D4D4"/>
	<stop  offset="0.5013" style="stop-color:#ECECEC"/>
	<stop  offset="0.7712" style="stop-color:#FAFAFA"/>
	<stop  offset="1" style="stop-color:#FFFFFF"/>
</linearGradient>
<polygon fill="url(#SVGID_1_)" points="1280,81.876 825.119,81.876 825.119,69.782 454.881,69.862 454.881,81.876 0,81.876 0,0 
	1280,0 "/>
<linearGradient id="SVGID_2_" gradientUnits="userSpaceOnUse" x1="637.6084" y1="77.4307" x2="637.6084" y2="21.5747">
	<stop  offset="0" style="stop-color:#000000"/>
	<stop  offset="1" style="stop-color:#626262"/>
</linearGradient>
<rect x="452.302" y="21.575" fill="url(#SVGID_2_)" width="370.612" height="55.856"/>
<g>
	<linearGradient id="SVGID_3_" gradientUnits="userSpaceOnUse" x1="640.0005" y1="81.876" x2="640.0005" y2="0">
		<stop  offset="0" style="stop-color:#FFFFFF"/>
		<stop  offset="0.2288" style="stop-color:#FAFAFA"/>
		<stop  offset="0.4987" style="stop-color:#ECECEC"/>
		<stop  offset="0.788" style="stop-color:#D4D4D4"/>
		<stop  offset="1" style="stop-color:#BEBEBE"/>
	</linearGradient>
	<path fill="url(#SVGID_3_)" d="M0,0v60.695c73.313,9.167,185.875,16.598,321.878,21.181h133.003l59.062-53.881h252.115
		l59.062,53.881h133.003c136.001-4.583,248.564-12.014,321.878-21.181V0H0z"/>
</g>
<path fill="none" stroke="#0000A8" stroke-miterlimit="10" d="M825.119,81.876"/>
<path fill="none" stroke="#0000A8" stroke-miterlimit="10" d="M454.881,81.876"/>
</svg>
