<?xml version="1.0" encoding="utf-8"?>
<!-- Generator: Adobe Illustrator 15.0.0, SVG Export Plug-In . SVG Version: 6.00 Build 0)  -->
<!DOCTYPE svg PUBLIC "-//W3C//DTD SVG 1.1//EN" "http://www.w3.org/Graphics/SVG/1.1/DTD/svg11.dtd">
<svg version="1.1" id="Layer_1" xmlns="http://www.w3.org/2000/svg" xmlns:xlink="http://www.w3.org/1999/xlink" x="0px" y="0px"
	 width="1280px" height="82.771px" viewBox="0 0 1280 82.771" enable-background="new 0 0 1280 82.771" xml:space="preserve">
<linearGradient id="SVGID_1_" gradientUnits="userSpaceOnUse" x1="640.7505" y1="81.2734" x2="640.7505" y2="1.499">
	<stop  offset="0" style="stop-color:#000000"/>
	<stop  offset="0.1789" style="stop-color:#050505"/>
	<stop  offset="0.3898" style="stop-color:#131313"/>
	<stop  offset="0.6169" style="stop-color:#2B2B2B"/>
	<stop  offset="0.854" style="stop-color:#4C4C4C"/>
	<stop  offset="1" style="stop-color:#646464"/>
</linearGradient>
<polygon fill="url(#SVGID_1_)" points="776.413,1.499 745.197,34.597 536.306,34.597 505.092,1.499 1.499,1.499 1.499,81.273 
	1280.002,81.273 1280.002,1.499 "/>
<path fill="#231F20" d="M1281.5,82.771H0V0h505.737l31.216,33.099h207.596L775.765,0H1281.5V82.771z M2.997,79.774h1275.508V2.997
	H777.058l-31.214,33.099H535.66L504.444,2.997H2.997V79.774z"/>
<g>
	<polygon fill="#A8A8A8" points="16.482,5.4 503.409,5.4 534.622,38.5 746.882,38.5 778.095,5.4 1275.357,5.4 1276.102,5.4 
		1278.702,5.4 1278.702,2.799 776.973,2.799 745.76,35.898 535.745,35.898 504.531,2.799 2.799,2.799 2.799,5.4 5.4,5.4 	"/>
	<polygon fill="#A8A8A8" points="1276.102,77.372 1275.357,77.372 16.482,77.372 5.4,77.372 2.799,77.372 2.799,79.973 
		1278.702,79.973 1278.702,77.372 	"/>
</g>
</svg>
