<?xml version="1.0" encoding="utf-8"?>
<!-- Generator: Adobe Illustrator 15.0.0, SVG Export Plug-In . SVG Version: 6.00 Build 0)  -->
<!DOCTYPE svg PUBLIC "-//W3C//DTD SVG 1.1//EN" "http://www.w3.org/Graphics/SVG/1.1/DTD/svg11.dtd">
<svg version="1.1" id="Layer_1" xmlns="http://www.w3.org/2000/svg" xmlns:xlink="http://www.w3.org/1999/xlink" x="0px" y="0px"
	 width="258px" height="58px" viewBox="0 0 258 58" enable-background="new 0 0 258 58" xml:space="preserve">
<g>
	<g>
		<linearGradient id="SVGID_1_" gradientUnits="userSpaceOnUse" x1="26.3716" y1="52.5664" x2="26.3716" y2="5.4336">
			<stop  offset="0" style="stop-color:#2B2B2B"/>
			<stop  offset="0.4545" style="stop-color:#8A8C8E"/>
			<stop  offset="0.497" style="stop-color:#E6E6E6"/>
			<stop  offset="0.7394" style="stop-color:#A9A9A9"/>
			<stop  offset="1" style="stop-color:#E4E4E4"/>
		</linearGradient>
		<path fill="url(#SVGID_1_)" d="M25.601,52.566c-4.503,0-8.522-0.836-11.946-2.484c-3.474-1.67-6.188-4.067-8.064-7.123
			C3.719,39.912,2.77,36.37,2.77,32.433c0-5.104,1.201-9.77,3.571-13.868c2.375-4.109,5.747-7.363,10.022-9.671
			c4.251-2.296,9.154-3.46,14.572-3.46c4.128,0,7.852,0.75,11.068,2.229c3.287,1.512,5.784,3.692,7.422,6.48l0.549,0.935
			l-10.713,8.541l-0.742-1.193c-1.858-2.986-4.599-4.438-8.381-4.438c-2.49,0-4.703,0.587-6.578,1.745
			c-1.877,1.159-3.364,2.788-4.419,4.842c-1.068,2.079-1.609,4.455-1.609,7.063c0,2.563,0.793,4.551,2.423,6.074
			c1.656,1.548,3.884,2.301,6.811,2.301c3.743,0,6.865-1.485,9.544-4.542l0.873-0.995l8.935,8.783l-0.73,0.884
			c-2.454,2.97-5.365,5.145-8.653,6.464C33.494,51.907,29.749,52.566,25.601,52.566z"/>
		<path d="M30.935,6.683c3.964,0,7.48,0.705,10.545,2.115c3.065,1.41,5.354,3.403,6.867,5.978l-8.767,6.989
			c-2.085-3.351-5.233-5.027-9.442-5.027c-2.738,0-5.15,0.644-7.234,1.932c-2.085,1.287-3.709,3.065-4.874,5.334
			c-1.165,2.268-1.748,4.813-1.748,7.634c0,2.901,0.939,5.23,2.82,6.987c1.879,1.758,4.435,2.638,7.664,2.638
			c4.086,0,7.581-1.656,10.484-4.968l7.173,7.052c-2.33,2.82-5.048,4.854-8.154,6.1c-3.107,1.247-6.663,1.87-10.668,1.87
			c-4.333,0-8.134-0.786-11.404-2.36c-3.27-1.572-5.784-3.79-7.541-6.651c-1.758-2.861-2.636-6.152-2.636-9.872
			c0-4.904,1.134-9.318,3.403-13.242s5.446-6.989,9.534-9.197C21.043,7.786,25.703,6.683,30.935,6.683 M30.935,4.183
			c-5.628,0-10.731,1.215-15.167,3.611c-4.481,2.42-8.017,5.833-10.51,10.145C2.777,22.23,1.52,27.106,1.52,32.433
			c0,4.172,1.011,7.934,3.006,11.181c2.004,3.264,4.894,5.819,8.588,7.596c3.594,1.73,7.795,2.607,12.488,2.607
			c4.308,0,8.21-0.689,11.599-2.05c3.483-1.397,6.563-3.695,9.15-6.827l1.46-1.769l-1.635-1.607l-7.173-7.052l-1.888-1.855
			l-1.745,1.991c-2.428,2.769-5.242,4.115-8.604,4.115c-2.595,0-4.543-0.643-5.957-1.964c-1.365-1.274-2.028-2.963-2.028-5.161
			c0-2.407,0.495-4.591,1.471-6.492c0.963-1.874,2.259-3.296,3.964-4.349c1.698-1.049,3.635-1.559,5.921-1.559
			c3.36,0,5.687,1.223,7.32,3.848l1.484,2.385l2.197-1.751l8.767-6.989l1.696-1.352l-1.099-1.87
			c-1.77-3.012-4.454-5.361-7.978-6.982C39.144,4.972,35.245,4.183,30.935,4.183L30.935,4.183z"/>
	</g>
	<g>
		<linearGradient id="SVGID_2_" gradientUnits="userSpaceOnUse" x1="72.4111" y1="52.5664" x2="72.4111" y2="5.4336">
			<stop  offset="0" style="stop-color:#2B2B2B"/>
			<stop  offset="0.4545" style="stop-color:#8A8C8E"/>
			<stop  offset="0.497" style="stop-color:#E6E6E6"/>
			<stop  offset="0.7394" style="stop-color:#A9A9A9"/>
			<stop  offset="1" style="stop-color:#E4E4E4"/>
		</linearGradient>
		<path fill="url(#SVGID_2_)" d="M69.683,52.566c-4.509,0-8.502-0.849-11.868-2.521c-3.409-1.694-6.078-4.102-7.931-7.154
			c-1.849-3.043-2.787-6.563-2.787-10.458c0-5.104,1.201-9.77,3.57-13.868c2.375-4.108,5.736-7.361,9.989-9.67
			c4.232-2.297,9.105-3.462,14.483-3.462c4.507,0,8.5,0.849,11.868,2.521c3.408,1.693,6.076,4.1,7.931,7.153
			c1.85,3.049,2.788,6.567,2.788,10.458c0,5.104-1.201,9.77-3.571,13.869c-2.375,4.106-5.735,7.36-9.989,9.67
			C79.931,51.402,75.058,52.566,69.683,52.566z M74.097,17.988c-2.436,0-4.597,0.611-6.423,1.816
			c-1.844,1.217-3.286,2.875-4.285,4.93c-1.015,2.086-1.529,4.429-1.529,6.964c0,2.575,0.749,4.56,2.291,6.064
			c1.549,1.515,3.7,2.25,6.576,2.25c2.435,0,4.596-0.611,6.423-1.817c1.844-1.217,3.286-2.875,4.285-4.929
			c1.015-2.086,1.529-4.429,1.529-6.964c0-2.575-0.749-4.559-2.29-6.064C79.123,18.724,76.972,17.988,74.097,17.988z"/>
		<path d="M75.139,6.683c4.332,0,8.103,0.797,11.312,2.391c3.208,1.594,5.681,3.822,7.418,6.683c1.736,2.862,2.606,6.131,2.606,9.81
			c0,4.905-1.135,9.319-3.403,13.243c-2.269,3.924-5.437,6.989-9.503,9.197c-4.068,2.206-8.696,3.31-13.887,3.31
			c-4.333,0-8.104-0.796-11.312-2.391c-3.209-1.595-5.682-3.822-7.418-6.684c-1.737-2.859-2.605-6.129-2.605-9.81
			c0-4.904,1.134-9.318,3.402-13.242c2.269-3.924,5.436-6.989,9.503-9.197C65.319,7.786,69.948,6.683,75.139,6.683 M70.725,41.263
			c2.698,0,5.067-0.675,7.112-2.024c2.043-1.349,3.617-3.158,4.721-5.425c1.104-2.27,1.655-4.772,1.655-7.511
			c0-2.902-0.889-5.221-2.667-6.958c-1.778-1.737-4.261-2.606-7.45-2.606c-2.698,0-5.068,0.674-7.112,2.023
			c-2.044,1.349-3.617,3.157-4.721,5.426s-1.655,4.772-1.655,7.511c0,2.901,0.889,5.222,2.667,6.959
			C65.054,40.395,67.537,41.263,70.725,41.263 M75.139,4.183c-5.589,0-10.662,1.216-15.08,3.613
			c-4.458,2.42-7.983,5.833-10.475,10.143c-2.48,4.292-3.738,9.167-3.738,14.494c0,4.128,0.999,7.865,2.969,11.107
			c1.978,3.258,4.818,5.823,8.442,7.625c3.541,1.759,7.721,2.651,12.425,2.651c5.586,0,10.659-1.215,15.079-3.612
			c4.46-2.421,7.984-5.834,10.476-10.144c2.48-4.291,3.738-9.168,3.738-14.494c0-4.123-0.999-7.86-2.969-11.106
			c-1.98-3.259-4.821-5.824-8.443-7.625C84.021,5.075,79.84,4.183,75.139,4.183L75.139,4.183z M70.725,38.763
			c-2.533,0-4.398-0.619-5.702-1.894c-1.288-1.259-1.914-2.95-1.914-5.171c0-2.344,0.472-4.503,1.403-6.417
			c0.913-1.876,2.172-3.326,3.849-4.433c1.642-1.084,3.518-1.61,5.735-1.61c2.532,0,4.397,0.62,5.703,1.895
			c1.287,1.258,1.913,2.949,1.913,5.17c0,2.344-0.472,4.503-1.403,6.417c-0.913,1.875-2.172,3.325-3.85,4.432
			C74.818,38.235,72.942,38.763,70.725,38.763L70.725,38.763z"/>
	</g>
	<g>
		<linearGradient id="SVGID_3_" gradientUnits="userSpaceOnUse" x1="127.5571" y1="51.708" x2="127.5571" y2="6.292">
			<stop  offset="0" style="stop-color:#2B2B2B"/>
			<stop  offset="0.4545" style="stop-color:#8A8C8E"/>
			<stop  offset="0.497" style="stop-color:#E6E6E6"/>
			<stop  offset="0.7394" style="stop-color:#A9A9A9"/>
			<stop  offset="1" style="stop-color:#E4E4E4"/>
		</linearGradient>
		<polygon fill="url(#SVGID_3_)" points="135.545,51.708 139.245,32.746 127.803,47.478 121.029,47.478 114.5,32.054 
			110.558,51.708 96.851,51.708 105.934,6.292 117.672,6.292 127.234,29.904 145.774,6.292 158.264,6.292 149.31,51.708 		"/>
		<path d="M156.743,7.542l-8.461,42.917h-11.22l4.414-22.623l-14.286,18.393h-5.333l-7.787-18.393l-4.537,22.623H98.375
			l8.583-42.917h9.871l10.055,24.831l19.497-24.831H156.743 M159.784,5.042h-3.041h-10.361h-1.216l-0.75,0.956l-16.833,21.438
			l-8.436-20.832l-0.632-1.562h-1.685h-9.871h-2.049l-0.402,2.01l-8.583,42.917l-0.598,2.99h3.049h11.158h2.048l0.403-2.009
			l2.943-14.676l4.627,10.929l0.646,1.525h1.656h5.333h1.224l0.751-0.967l7.847-10.104l-2.404,12.322l-0.581,2.979h3.035h11.22
			h2.056l0.397-2.017l8.461-42.917L159.784,5.042L159.784,5.042z"/>
	</g>
	<g>
		<linearGradient id="SVGID_4_" gradientUnits="userSpaceOnUse" x1="179.3203" y1="51.708" x2="179.3203" y2="6.292">
			<stop  offset="0" style="stop-color:#2B2B2B"/>
			<stop  offset="0.4545" style="stop-color:#8A8C8E"/>
			<stop  offset="0.497" style="stop-color:#E6E6E6"/>
			<stop  offset="0.7394" style="stop-color:#A9A9A9"/>
			<stop  offset="1" style="stop-color:#E4E4E4"/>
		</linearGradient>
		<path fill="url(#SVGID_4_)" d="M155.34,51.708l9.084-45.417h22.729c5.055,0,9.014,0.949,11.769,2.822
			c2.906,1.978,4.38,4.832,4.38,8.483c0,2.756-0.764,5.183-2.27,7.213c-1.043,1.407-2.382,2.603-3.998,3.574
			c1.058,0.74,1.942,1.621,2.644,2.635c1.145,1.66,1.724,3.621,1.724,5.83c0,4.891-2.031,8.659-6.037,11.203
			c-3.825,2.427-8.836,3.657-14.894,3.657H155.34z M181.144,40.441c1.896,0,3.366-0.357,4.372-1.061
			c0.892-0.624,1.307-1.507,1.307-2.778c0-1.033-0.421-1.443-0.787-1.685c-0.687-0.453-1.693-0.683-2.991-0.683h-9.702l-1.223,6.206
			H181.144z M182.737,23.336c1.881,0,3.29-0.34,4.188-1.01c0.808-0.602,1.184-1.442,1.184-2.646c0-0.635,0-2.122-3.839-2.122h-7.559
			l-1.156,5.777H182.737z"/>
		<path d="M187.152,7.542c4.822,0,8.511,0.869,11.066,2.605c2.554,1.738,3.832,4.221,3.832,7.449c0,2.494-0.675,4.65-2.023,6.468
			c-1.349,1.819-3.229,3.24-5.641,4.261c1.84,0.818,3.259,1.953,4.262,3.403c1,1.451,1.502,3.157,1.502,5.119
			c0,4.456-1.819,7.838-5.457,10.147c-3.639,2.309-8.38,3.463-14.224,3.463h-23.605l8.584-42.917H187.152 M174.031,24.586h8.706
			c2.167,0,3.811-0.419,4.936-1.257c1.124-0.837,1.687-2.054,1.687-3.648c0-2.247-1.696-3.372-5.089-3.372h-8.583L174.031,24.586
			 M170.599,41.691h10.545c2.166,0,3.863-0.429,5.089-1.287c1.227-0.858,1.84-2.125,1.84-3.802c0-1.227-0.45-2.136-1.35-2.729
			c-0.898-0.593-2.125-0.889-3.679-0.889h-10.729L170.599,41.691 M187.152,5.042h-21.704h-2.05l-0.401,2.01l-8.584,42.917
			l-0.599,2.99h3.05h23.605c6.298,0,11.534-1.296,15.563-3.852c4.392-2.788,6.618-6.913,6.618-12.259
			c0-2.467-0.654-4.666-1.943-6.538c-0.459-0.664-0.986-1.275-1.58-1.833c1.125-0.852,2.098-1.828,2.909-2.923
			c1.668-2.25,2.515-4.927,2.515-7.957c0-4.033-1.703-7.323-4.926-9.516C196.616,6.035,192.537,5.042,187.152,5.042L187.152,5.042z
			 M177.736,18.809h6.534c1.662,0,2.284,0.327,2.436,0.427c0.089,0.059,0.153,0.102,0.153,0.445c0,1.001-0.344,1.393-0.68,1.643
			c-0.467,0.348-1.442,0.762-3.442,0.762h-5.656L177.736,18.809L177.736,18.809z M174.37,35.485h8.674
			c1.307,0,1.974,0.259,2.302,0.476c0.106,0.07,0.227,0.149,0.227,0.642c0,1.065-0.372,1.473-0.773,1.754
			c-0.791,0.554-2.021,0.835-3.655,0.835h-7.504L174.37,35.485L174.37,35.485z"/>
	</g>
	<g>
		<linearGradient id="SVGID_5_" gradientUnits="userSpaceOnUse" x1="229.916" y1="52.5664" x2="229.916" y2="5.4336">
			<stop  offset="0" style="stop-color:#2B2B2B"/>
			<stop  offset="0.4545" style="stop-color:#8A8C8E"/>
			<stop  offset="0.497" style="stop-color:#E6E6E6"/>
			<stop  offset="0.7394" style="stop-color:#A9A9A9"/>
			<stop  offset="1" style="stop-color:#E4E4E4"/>
		</linearGradient>
		<path fill="url(#SVGID_5_)" d="M227.188,52.566c-4.509,0-8.501-0.849-11.868-2.521c-3.408-1.694-6.077-4.101-7.931-7.154
			c-1.849-3.042-2.786-6.562-2.786-10.458c0-5.106,1.201-9.772,3.57-13.868c2.373-4.106,5.733-7.36,9.987-9.669
			c4.233-2.297,9.106-3.462,14.484-3.462c4.507,0,8.5,0.849,11.867,2.521c3.408,1.693,6.076,4.1,7.931,7.153
			c1.85,3.048,2.788,6.566,2.788,10.458c0,5.104-1.201,9.77-3.57,13.868c-2.376,4.108-5.736,7.361-9.989,9.671
			C237.437,51.402,232.563,52.566,227.188,52.566z M231.603,17.988c-2.438,0-4.599,0.611-6.424,1.816
			c-1.846,1.217-3.287,2.875-4.285,4.929c-1.016,2.088-1.53,4.431-1.53,6.965c0,2.574,0.75,4.559,2.291,6.064
			c1.549,1.515,3.7,2.25,6.576,2.25c2.436,0,4.596-0.611,6.423-1.817c1.844-1.218,3.286-2.876,4.286-4.93
			c1.014-2.085,1.528-4.428,1.528-6.963c0-2.575-0.749-4.559-2.29-6.064C236.628,18.724,234.478,17.988,231.603,17.988z"/>
		<path d="M232.645,6.683c4.331,0,8.103,0.797,11.312,2.391s5.681,3.822,7.418,6.683c1.737,2.862,2.606,6.131,2.606,9.81
			c0,4.905-1.135,9.319-3.402,13.243c-2.27,3.924-5.438,6.989-9.504,9.197c-4.067,2.206-8.696,3.31-13.887,3.31
			c-4.333,0-8.103-0.796-11.312-2.391s-5.682-3.822-7.419-6.684c-1.737-2.859-2.604-6.129-2.604-9.81
			c0-4.904,1.133-9.318,3.402-13.242c2.268-3.924,5.436-6.989,9.502-9.197C222.824,7.786,227.453,6.683,232.645,6.683
			 M228.23,41.263c2.697,0,5.067-0.675,7.111-2.024c2.043-1.349,3.617-3.158,4.722-5.425c1.104-2.27,1.654-4.772,1.654-7.511
			c0-2.902-0.889-5.221-2.666-6.958c-1.778-1.737-4.262-2.606-7.449-2.606c-2.698,0-5.069,0.674-7.112,2.023
			c-2.045,1.349-3.618,3.157-4.721,5.426c-1.104,2.269-1.656,4.772-1.656,7.511c0,2.901,0.89,5.222,2.668,6.959
			C222.559,40.395,225.042,41.263,228.23,41.263 M232.645,4.183c-5.589,0-10.662,1.216-15.08,3.613
			c-4.46,2.421-7.983,5.833-10.475,10.143c-2.479,4.288-3.737,9.165-3.737,14.493c0,4.129,0.999,7.866,2.968,11.107
			c1.979,3.258,4.819,5.823,8.443,7.625c3.541,1.759,7.721,2.651,12.424,2.651c5.587,0,10.66-1.215,15.079-3.612
			c4.459-2.421,7.983-5.833,10.476-10.143c2.48-4.293,3.738-9.169,3.738-14.495c0-4.125-0.999-7.861-2.97-11.107
			c-1.979-3.259-4.82-5.825-8.442-7.624C241.526,5.075,237.346,4.183,232.645,4.183L232.645,4.183z M228.23,38.763
			c-2.533,0-4.398-0.619-5.702-1.894c-1.289-1.259-1.915-2.95-1.915-5.171c0-2.343,0.473-4.502,1.404-6.417
			c0.912-1.876,2.171-3.326,3.849-4.433c1.642-1.084,3.518-1.61,5.736-1.61c2.532,0,4.397,0.62,5.702,1.895
			c1.287,1.258,1.913,2.949,1.913,5.17c0,2.345-0.472,4.503-1.402,6.418c-0.913,1.873-2.173,3.323-3.851,4.432
			C232.323,38.236,230.447,38.763,228.23,38.763L228.23,38.763z"/>
	</g>
</g>
</svg>
