<?xml version="1.0" encoding="utf-8"?>
<!-- Generator: Adobe Illustrator 15.0.0, SVG Export Plug-In . SVG Version: 6.00 Build 0)  -->
<!DOCTYPE svg PUBLIC "-//W3C//DTD SVG 1.1//EN" "http://www.w3.org/Graphics/SVG/1.1/DTD/svg11.dtd">
<svg version="1.1" id="Layer_1" xmlns="http://www.w3.org/2000/svg" xmlns:xlink="http://www.w3.org/1999/xlink" x="0px" y="0px"
	 width="1267px" height="128px" viewBox="0 0 1267 128" enable-background="new 0 0 1267 128" xml:space="preserve">
<path fill="none" d="M955.132,52.87c3.733,0,6.771-1.046,9.12-3.139c2.343-2.093,3.517-4.9,3.517-8.422
	c0-2.946-1.029-5.254-3.087-6.922c-2.063-1.662-4.763-2.496-8.112-2.496c-3.831,0-6.894,1.024-9.196,3.068
	c-2.296,2.047-3.446,4.877-3.446,8.49c0,2.951,1.006,5.258,3.016,6.922C948.955,52.038,951.684,52.87,955.132,52.87"/>
<path fill="none" d="M955.132,50.843c-2.945,0-5.268-0.684-6.897-2.033c-1.534-1.27-2.28-3.024-2.28-5.36
	c0-3.034,0.904-5.316,2.768-6.976c1.937-1.719,4.504-2.555,7.848-2.555c2.893,0,5.131,0.67,6.842,2.048
	c1.565,1.27,2.33,3.019,2.33,5.343c0,2.943-0.929,5.203-2.839,6.91C960.921,49.984,958.379,50.843,955.132,50.843L955.132,50.843z"
	/>
<g>
	<path opacity="0.5" d="M1242.194,26.313c-6.749-6.799-15.921-10.202-27.504-10.202c-10.244,0-19.438,2.878-27.575,8.632
		c-8.138,5.76-14.483,13.606-19.028,23.547c-4.55,9.942-6.824,21.002-6.824,33.177c0,12.086,3.376,21.527,10.128,28.329
		c6.749,6.803,15.917,10.201,27.5,10.201c10.243,0,19.438-2.876,27.579-8.633c8.135-5.755,14.479-13.604,19.029-23.545
		c4.545-9.939,6.819-21,6.819-33.179C1252.318,42.56,1248.945,33.117,1242.194,26.313z M1221.154,73.76
		c-1.723,6.474-4.262,11.943-7.613,16.416c-3.35,4.472-7.325,6.705-11.918,6.705c-7.852,0-11.779-5.373-11.779-16.127
		c0-5.803,0.863-11.936,2.583-18.408c1.727-6.468,4.263-11.939,7.614-16.411c3.35-4.471,7.325-6.708,11.922-6.708
		c3.735,0,6.628,1.31,8.688,3.925c2.057,2.617,3.085,6.686,3.085,12.202C1223.736,61.158,1222.879,67.294,1221.154,73.76z"/>
	<g>
		<linearGradient id="SVGID_1_" gradientUnits="userSpaceOnUse" x1="1202.7363" y1="115.9434" x2="1202.7363" y2="12.0566">
			<stop  offset="0" style="stop-color:#2B2B2B"/>
			<stop  offset="0.497" style="stop-color:#E6E6E6"/>
			<stop  offset="0.6242" style="stop-color:#B2B2B2"/>
			<stop  offset="1" style="stop-color:#000000"/>
		</linearGradient>
		<path fill="url(#SVGID_1_)" d="M1238.141,22.258c-6.749-6.799-15.921-10.202-27.504-10.202c-10.245,0-19.439,2.878-27.575,8.632
			c-8.139,5.76-14.483,13.606-19.029,23.547c-4.549,9.942-6.823,21.001-6.823,33.176c0,12.086,3.375,21.527,10.128,28.33
			c6.748,6.802,15.916,10.201,27.499,10.201c10.243,0,19.439-2.877,27.579-8.634c8.135-5.755,14.479-13.604,19.029-23.544
			c4.545-9.94,6.82-21.001,6.82-33.18C1248.265,38.505,1244.891,29.063,1238.141,22.258z M1217.1,69.705
			c-1.722,6.474-4.262,11.943-7.613,16.416c-3.35,4.472-7.325,6.705-11.918,6.705c-7.852,0-11.779-5.373-11.779-16.127
			c0-5.802,0.863-11.936,2.584-18.408c1.726-6.468,4.262-11.938,7.613-16.411c3.35-4.471,7.325-6.707,11.922-6.707
			c3.735,0,6.628,1.31,8.689,3.925c2.057,2.617,3.084,6.685,3.084,12.202C1219.682,57.104,1218.824,63.239,1217.1,69.705z"/>
		<path d="M1210.637,12.056c11.583,0,20.755,3.403,27.504,10.202c6.75,6.804,10.124,16.247,10.124,28.327
			c0,12.179-2.275,23.24-6.82,33.18c-4.55,9.939-10.895,17.789-19.029,23.544c-8.14,5.757-17.336,8.634-27.579,8.634
			c-11.583,0-20.751-3.399-27.499-10.201c-6.753-6.803-10.128-16.244-10.128-28.33c0-12.175,2.274-23.234,6.823-33.176
			c4.546-9.941,10.891-17.788,19.029-23.547C1191.197,14.935,1200.392,12.056,1210.637,12.056 M1197.568,92.826
			c4.593,0,8.568-2.233,11.918-6.705c3.352-4.473,5.892-9.942,7.613-16.416c1.725-6.466,2.582-12.602,2.582-18.405
			c0-5.517-1.027-9.584-3.084-12.202c-2.062-2.615-4.954-3.925-8.689-3.925c-4.597,0-8.572,2.236-11.922,6.707
			c-3.352,4.472-5.888,9.943-7.613,16.411c-1.721,6.472-2.584,12.606-2.584,18.408C1185.789,87.453,1189.717,92.826,1197.568,92.826
			 M1210.637,10.029c-10.625,0-20.296,3.03-28.745,9.004c-8.402,5.946-15.03,14.142-19.702,24.359
			c-4.65,10.162-7.008,21.608-7.008,34.02c0,12.583,3.604,22.595,10.716,29.757c7.111,7.167,16.847,10.802,28.938,10.802
			c10.627,0,20.3-3.029,28.75-9.006c8.396-5.939,15.023-14.133,19.701-24.356c4.648-10.163,7.004-21.61,7.004-34.023
			c0-12.58-3.604-22.59-10.712-29.754C1232.465,13.663,1222.727,10.029,1210.637,10.029L1210.637,10.029z M1197.568,90.799
			c-4.188,0-9.752-1.461-9.752-14.1c0-5.59,0.848-11.608,2.517-17.887c1.65-6.188,4.1-11.477,7.275-15.715
			c2.973-3.967,6.343-5.896,10.3-5.896c3.104,0,5.425,1.031,7.098,3.152c1.756,2.236,2.648,5.919,2.648,10.947
			c0,5.612-0.846,11.629-2.512,17.882c-1.647,6.185-4.095,11.475-7.277,15.723C1204.894,88.871,1201.525,90.799,1197.568,90.799
			L1197.568,90.799z"/>
	</g>
	<path fill="none" d="M1210.637,12.056c11.583,0,20.755,3.403,27.504,10.202c6.75,6.804,10.124,16.247,10.124,28.327
		c0,12.179-2.275,23.24-6.82,33.18c-4.55,9.939-10.895,17.789-19.029,23.544c-8.14,5.757-17.336,8.634-27.579,8.634
		c-11.583,0-20.751-3.399-27.499-10.201c-6.753-6.803-10.128-16.244-10.128-28.33c0-12.175,2.274-23.234,6.823-33.176
		c4.546-9.941,10.891-17.788,19.029-23.547C1191.197,14.935,1200.392,12.056,1210.637,12.056"/>
	<path fill="none" d="M1197.568,92.826c4.593,0,8.568-2.233,11.918-6.705c3.352-4.473,5.892-9.942,7.613-16.416
		c1.725-6.466,2.582-12.602,2.582-18.405c0-5.517-1.027-9.584-3.084-12.202c-2.062-2.615-4.954-3.925-8.689-3.925
		c-4.597,0-8.572,2.236-11.922,6.707c-3.352,4.472-5.888,9.943-7.613,16.411c-1.721,6.472-2.584,12.606-2.584,18.408
		C1185.789,87.453,1189.717,92.826,1197.568,92.826"/>
	<path fill="none" d="M1210.637,10.029c-10.625,0-20.296,3.03-28.745,9.004c-8.402,5.946-15.03,14.142-19.702,24.359
		c-4.65,10.162-7.008,21.608-7.008,34.02c0,12.583,3.604,22.595,10.716,29.757c7.111,7.167,16.847,10.802,28.938,10.802
		c10.627,0,20.3-3.029,28.75-9.006c8.394-5.939,15.023-14.133,19.701-24.356c4.648-10.163,7.004-21.61,7.004-34.023
		c0-12.58-3.604-22.591-10.712-29.754C1232.465,13.663,1222.727,10.029,1210.637,10.029L1210.637,10.029z"/>
	<path fill="#FFFFFF" d="M1194.836,113.916c-11.125,0-19.65-3.142-26.061-9.602c-6.33-6.377-9.54-15.428-9.54-26.902
		c0-11.825,2.235-22.704,6.641-32.333c4.373-9.56,10.548-17.209,18.355-22.736c7.75-5.48,16.635-8.26,26.405-8.26
		c10.971,0,19.741,3.231,26.064,9.604c6.327,6.377,9.536,15.428,9.536,26.899c0,11.829-2.233,22.708-6.636,32.336
		c-4.378,9.563-10.554,17.211-18.356,22.732C1213.495,111.137,1204.61,113.916,1194.836,113.916z M1210.637,16.11
		c-9.343,0-17.833,2.654-25.233,7.888c-7.513,5.316-13.462,12.693-17.683,21.924c-4.286,9.363-6.458,19.958-6.458,31.49
		c0,10.92,3.012,19.49,8.95,25.473c6.011,6.059,14.065,9.004,24.623,9.004c9.347,0,17.838-2.654,25.237-7.889
		c7.507-5.312,13.458-12.688,17.683-21.922c4.282-9.361,6.454-19.957,6.454-31.493c0-10.917-3.011-19.487-8.946-25.472
		C1229.332,19.139,1221.048,16.11,1210.637,16.11z"/>
	<path fill="#FFFFFF" d="M1197.568,96.881c-5.913,0-15.834-2.621-15.834-20.182c0-6.121,0.915-12.666,2.721-19.452
		c1.853-6.945,4.641-12.933,8.287-17.797c4.142-5.527,9.245-8.331,15.166-8.331c5.019,0,9.016,1.841,11.876,5.473
		c2.659,3.384,3.952,8.195,3.952,14.708c0,6.143-0.915,12.687-2.719,19.449c-1.845,6.938-4.634,12.929-8.287,17.803
		C1208.59,94.079,1203.489,96.881,1197.568,96.881z M1207.908,33.146c-5.248,0-9.806,2.53-13.543,7.519
		c-3.49,4.656-6.165,10.41-7.95,17.104c-1.76,6.616-2.653,12.986-2.653,18.93c0,15.005,7.508,18.154,13.807,18.154
		c5.248,0,9.804-2.528,13.539-7.517c3.498-4.666,6.173-10.422,7.95-17.11c1.761-6.592,2.651-12.959,2.651-18.926
		c0-6.041-1.15-10.443-3.519-13.454C1215.734,34.729,1212.273,33.146,1207.908,33.146z"/>
</g>
<g>
	<path opacity="0.5" d="M1121.154,34.52c-3.541-6.087-8.447-10.68-14.719-13.772c-6.27-3.09-13.525-4.637-21.757-4.637
		c-8.139,0-15.394,1.498-21.763,4.494c-6.367,2.998-11.369,7.278-15.008,12.844c-3.639,5.566-5.46,12.058-5.46,19.479
		c0,5.993,1.486,11.179,4.454,15.555c2.968,4.379,6.969,7.685,11.993,9.92c5.026,2.233,10.508,3.352,16.445,3.352
		c7.948,0,14.457-2.188,19.535-6.564c-1.918,6.85-5.317,12.296-10.197,16.34c-4.884,4.045-11.257,6.068-19.102,6.068
		c-7.566,0-13.741-1.622-18.53-4.856l-12.926,19.979c3.352,2.285,7.662,4.07,12.926,5.352c5.264,1.285,10.916,1.926,16.946,1.926
		c13.792,0,25.401-3.14,34.828-9.417c9.432-6.277,16.398-14.246,20.899-23.904c4.498-9.655,6.751-19.619,6.751-29.895
		C1126.472,48.028,1124.698,40.608,1121.154,34.52z M1093.868,57.779c-2.779,2.477-6.317,3.711-10.627,3.711
		c-3.928,0-7.037-0.998-9.334-2.996c-2.303-1.999-3.446-4.756-3.446-8.276c0-4.282,1.361-7.683,4.092-10.205
		c2.726-2.518,6.194-3.78,10.413-3.78c4.113,0,7.321,1.12,9.623,3.354c2.295,2.235,3.446,5.065,3.446,8.49
		C1098.035,52.072,1096.646,55.307,1093.868,57.779z"/>
	<g>
		<linearGradient id="SVGID_2_" gradientUnits="userSpaceOnUse" x1="1076.2422" y1="115.9434" x2="1076.2422" y2="12.0566">
			<stop  offset="0" style="stop-color:#2B2B2B"/>
			<stop  offset="0.497" style="stop-color:#E6E6E6"/>
			<stop  offset="0.6242" style="stop-color:#B2B2B2"/>
			<stop  offset="1" style="stop-color:#000000"/>
		</linearGradient>
		<path fill="url(#SVGID_2_)" d="M1117.1,30.465c-3.541-6.087-8.447-10.679-14.719-13.771c-6.27-3.09-13.525-4.637-21.757-4.637
			c-8.138,0-15.394,1.498-21.763,4.494c-6.366,2.998-11.369,7.278-15.008,12.844s-5.46,12.057-5.46,19.479
			c0,5.994,1.487,11.18,4.454,15.555c2.968,4.379,6.969,7.685,11.993,9.92c5.026,2.233,10.508,3.352,16.445,3.352
			c7.948,0,14.458-2.188,19.535-6.564c-1.918,6.85-5.317,12.296-10.197,16.341c-4.884,4.044-11.256,6.067-19.102,6.067
			c-7.566,0-13.741-1.621-18.53-4.856l-12.925,19.979c3.352,2.284,7.661,4.07,12.925,5.351c5.265,1.285,10.916,1.927,16.946,1.927
			c13.793,0,25.401-3.14,34.829-9.418c9.431-6.277,16.397-14.245,20.899-23.904c4.498-9.655,6.751-19.62,6.751-29.895
			C1122.418,43.974,1120.644,36.554,1117.1,30.465z M1089.814,53.725c-2.78,2.477-6.317,3.711-10.627,3.711
			c-3.928,0-7.038-0.998-9.335-2.997c-2.302-1.999-3.446-4.756-3.446-8.276c0-4.282,1.362-7.683,4.092-10.206
			c2.727-2.518,6.194-3.78,10.413-3.78c4.114,0,7.321,1.119,9.623,3.354c2.295,2.235,3.447,5.065,3.447,8.49
			C1093.981,48.018,1092.592,51.253,1089.814,53.725z"/>
		<path d="M1080.624,12.056c8.231,0,15.487,1.547,21.757,4.637c6.271,3.092,11.178,7.684,14.719,13.771
			c3.544,6.089,5.318,13.509,5.318,22.262c0,10.275-2.253,20.239-6.751,29.895c-4.502,9.659-11.469,17.627-20.899,23.904
			c-9.428,6.278-21.036,9.418-34.829,9.418c-6.03,0-11.682-0.642-16.946-1.927c-5.264-1.28-9.573-3.066-12.925-5.351l12.925-19.979
			c4.789,3.235,10.964,4.856,18.53,4.856c7.846,0,14.218-2.023,19.102-6.067c4.88-4.045,8.279-9.491,10.197-16.341
			c-5.077,4.377-11.587,6.564-19.535,6.564c-5.938,0-11.419-1.118-16.445-3.352c-5.024-2.235-9.025-5.541-11.993-9.92
			c-2.967-4.375-4.454-9.561-4.454-15.555c0-7.422,1.821-13.913,5.46-19.479s8.642-9.846,15.008-12.844
			C1065.23,13.554,1072.486,12.056,1080.624,12.056 M1079.188,57.436c4.31,0,7.847-1.234,10.627-3.711
			c2.777-2.472,4.167-5.707,4.167-9.703c0-3.425-1.152-6.255-3.447-8.49c-2.302-2.235-5.509-3.354-9.623-3.354
			c-4.219,0-7.687,1.262-10.413,3.78c-2.729,2.522-4.092,5.923-4.092,10.206c0,3.52,1.145,6.277,3.446,8.276
			C1072.149,56.438,1075.26,57.436,1079.188,57.436 M1080.624,10.029c-8.403,0-16.016,1.577-22.626,4.687
			c-6.683,3.146-12.013,7.713-15.841,13.569c-3.843,5.877-5.791,12.804-5.791,20.588c0,6.377,1.615,11.993,4.805,16.693
			c3.166,4.672,7.489,8.251,12.847,10.635c5.268,2.34,11.076,3.525,17.269,3.525c5.842,0,11.015-1.146,15.449-3.417
			c-1.833,3.823-4.31,7.04-7.403,9.605c-4.488,3.716-10.48,5.601-17.81,5.601c-7.113,0-12.965-1.517-17.396-4.51l-1.713-1.156
			l-1.124,1.736l-12.926,19.979l-1.075,1.66l1.636,1.115c3.542,2.415,8.114,4.313,13.589,5.646
			c5.393,1.316,11.254,1.984,17.425,1.984c14.133,0,26.229-3.283,35.953-9.759c9.7-6.455,16.972-14.778,21.612-24.733
			c4.606-9.887,6.94-20.233,6.94-30.752c0-9.072-1.88-16.905-5.593-23.281c-3.729-6.412-8.97-11.313-15.573-14.57
			C1096.753,11.659,1089.131,10.029,1080.624,10.029L1080.624,10.029z M1079.188,55.408c-3.455,0-6.072-0.818-8.004-2.499
			c-1.852-1.606-2.75-3.813-2.75-6.747c0-3.727,1.124-6.578,3.44-8.717c2.362-2.182,5.317-3.242,9.037-3.242
			c3.598,0,6.284,0.91,8.212,2.783c1.904,1.855,2.831,4.156,2.831,7.035c0,3.421-1.141,6.1-3.488,8.188
			C1086.051,54.362,1083.016,55.408,1079.188,55.408L1079.188,55.408z"/>
	</g>
	<path fill="none" d="M1080.624,12.056c8.231,0,15.487,1.547,21.757,4.637c6.271,3.092,11.178,7.684,14.719,13.771
		c3.544,6.089,5.318,13.509,5.318,22.262c0,10.275-2.253,20.239-6.751,29.895c-4.502,9.659-11.469,17.627-20.899,23.904
		c-9.428,6.278-21.036,9.418-34.829,9.418c-6.03,0-11.682-0.642-16.946-1.927c-5.264-1.28-9.573-3.066-12.925-5.351l12.925-19.979
		c4.789,3.235,10.964,4.856,18.53,4.856c7.846,0,14.218-2.023,19.102-6.067c4.88-4.045,8.279-9.491,10.197-16.341
		c-5.077,4.377-11.587,6.564-19.535,6.564c-5.938,0-11.419-1.118-16.445-3.352c-5.024-2.235-9.025-5.541-11.993-9.92
		c-2.967-4.375-4.454-9.561-4.454-15.555c0-7.422,1.821-13.913,5.46-19.479s8.642-9.846,15.008-12.844
		C1065.23,13.554,1072.486,12.056,1080.624,12.056"/>
	<path fill="none" d="M1079.188,57.436c4.31,0,7.847-1.234,10.627-3.711c2.777-2.472,4.167-5.707,4.167-9.703
		c0-3.425-1.152-6.255-3.447-8.49c-2.302-2.235-5.509-3.354-9.623-3.354c-4.219,0-7.687,1.262-10.413,3.78
		c-2.729,2.522-4.092,5.923-4.092,10.206c0,3.52,1.145,6.277,3.446,8.276C1072.149,56.438,1075.26,57.436,1079.188,57.436"/>
	<path fill="none" d="M1080.624,10.029c-8.403,0-16.016,1.577-22.626,4.687c-6.683,3.147-12.013,7.713-15.841,13.569
		c-3.843,5.877-5.791,12.804-5.791,20.588c0,6.377,1.615,11.993,4.803,16.693c3.168,4.672,7.491,8.251,12.849,10.635
		c5.268,2.34,11.076,3.525,17.269,3.525c5.844,0,11.015-1.146,15.449-3.417c-1.833,3.823-4.31,7.04-7.405,9.605
		c-4.486,3.716-10.479,5.601-17.808,5.601c-7.113,0-12.965-1.517-17.396-4.51l-1.713-1.156l-1.124,1.736l-12.926,19.979l-1.075,1.66
		l1.636,1.115c3.542,2.415,8.114,4.313,13.589,5.646c5.393,1.316,11.254,1.984,17.425,1.984c14.133,0,26.229-3.283,35.953-9.759
		c9.7-6.455,16.972-14.778,21.612-24.733c4.606-9.887,6.94-20.233,6.94-30.752c0-9.073-1.882-16.905-5.593-23.281
		c-3.729-6.412-8.97-11.313-15.573-14.57C1096.753,11.659,1089.131,10.029,1080.624,10.029L1080.624,10.029z"/>
	<path fill="none" d="M1079.188,55.408c-3.453,0-6.072-0.818-8.004-2.499c-1.852-1.606-2.75-3.813-2.75-6.747
		c0-3.727,1.124-6.578,3.44-8.717c2.362-2.182,5.317-3.242,9.037-3.242c3.598,0,6.284,0.91,8.212,2.783
		c1.904,1.855,2.831,4.156,2.831,7.035c0,3.421-1.141,6.1-3.488,8.188C1086.051,54.362,1083.016,55.408,1079.188,55.408
		L1079.188,55.408z"/>
	<path fill="#FFFFFF" d="M1059.938,113.916c-5.84,0-11.381-0.628-16.465-1.869c-3.688-0.896-6.923-2.066-9.613-3.475l-0.986-0.517
		l10.734-16.588l0.817,0.426c4.689,2.439,10.442,3.677,17.097,3.677c8.297,0,15.16-2.197,20.395-6.533
		c5.183-4.294,8.835-10.134,10.856-17.355l1.812-6.466l-5.088,4.385c-4.741,4.086-10.698,6.071-18.211,6.071
		c-5.622,0-10.878-1.068-15.622-3.177c-4.654-2.071-8.401-5.167-11.138-9.205c-2.724-4.016-4.105-8.867-4.105-14.417
		c0-6.982,1.727-13.163,5.129-18.369c3.413-5.22,8.183-9.297,14.175-12.12c6.066-2.854,13.098-4.301,20.899-4.301
		c7.88,0,14.897,1.49,20.86,4.43c5.878,2.897,10.542,7.263,13.863,12.972c3.346,5.749,5.043,12.897,5.043,21.242
		c0,9.922-2.208,19.693-6.561,29.037c-4.324,9.275-11.114,17.037-20.186,23.073C1084.598,110.861,1073.258,113.916,1059.938,113.916
		z M1035.796,107.274c2.341,1.112,5.078,2.055,8.156,2.805c4.928,1.2,10.307,1.81,15.986,1.81c12.911,0,23.875-2.939,32.582-8.738
		c8.756-5.826,15.309-13.31,19.472-22.242c4.227-9.074,6.371-18.557,6.371-28.182c0-7.983-1.604-14.786-4.77-20.222
		c-3.115-5.359-7.491-9.455-13.004-12.174c-5.682-2.8-12.399-4.22-19.966-4.22c-7.501,0-14.243,1.382-20.036,4.108
		c-5.648,2.661-10.136,6.494-13.339,11.394c-3.186,4.872-4.801,10.678-4.801,17.261c0,5.138,1.263,9.604,3.757,13.28
		c2.521,3.719,5.979,6.575,10.283,8.489c4.483,1.994,9.463,3.004,14.798,3.004c7.006,0,12.529-1.826,16.889-5.581l10.172-8.77
		l-3.621,12.933c-2.136,7.628-6.011,13.807-11.514,18.369c-5.61,4.645-12.907,7.001-21.689,7.001
		c-6.603,0-12.385-1.175-17.206-3.492L1035.796,107.274z"/>
	<path fill="#FFFFFF" d="M1079.188,61.49c-4.918,0-8.952-1.342-11.993-3.99c-3.213-2.788-4.843-6.603-4.843-11.336
		c0-5.441,1.815-9.878,5.396-13.184c3.486-3.222,7.915-4.856,13.163-4.856c5.183,0,9.372,1.516,12.452,4.503
		c3.101,3.022,4.672,6.855,4.672,11.396c0,5.186-1.858,9.469-5.524,12.73C1088.982,59.896,1084.501,61.49,1079.188,61.49z
		 M1080.911,30.15c-4.722,0-8.687,1.453-11.789,4.317c-3.147,2.907-4.743,6.842-4.743,11.695c0,4.12,1.394,7.419,4.146,9.807
		c2.663,2.317,6.25,3.492,10.663,3.492c4.801,0,8.829-1.421,11.975-4.225c3.217-2.86,4.847-6.634,4.847-11.216
		c0-3.973-1.366-7.318-4.059-9.943C1089.264,31.473,1085.55,30.15,1080.911,30.15z"/>
</g>
<g>
	<path opacity="0.5" d="M995.955,57.208c2.679-4.186,4.021-9.037,4.021-14.556c0-5.23-1.629-9.87-4.884-13.913
		s-7.827-7.158-13.719-9.348c-5.886-2.186-12.662-3.281-20.318-3.281c-8.045,0-15.203,1.262-21.476,3.781
		c-6.27,2.522-11.155,6.136-14.649,10.847c-3.494,4.708-5.242,10.253-5.242,16.624c0,6.375,2.488,11.75,7.47,16.126
		c-6.229,2.664-11.039,6.376-14.433,11.131c-3.402,4.757-5.098,10.322-5.098,16.694c0,5.712,1.742,10.73,5.24,15.058
		c3.49,4.332,8.424,7.682,14.791,10.059c6.364,2.378,13.765,3.567,22.194,3.567c8.806,0,16.609-1.354,23.407-4.065
		c6.797-2.711,12.088-6.585,15.869-11.629c3.783-5.045,5.674-10.989,5.674-17.839c0-7.801-3.399-14.175-10.195-19.122
		C989.487,64.771,993.271,61.396,995.955,57.208z M961.843,96.522c-2.924,2.427-6.776,3.641-11.562,3.641
		c-4.217,0-7.637-1.021-10.271-3.068c-2.637-2.045-3.947-4.829-3.947-8.349c0-4.088,1.48-7.349,4.45-9.777
		c2.966-2.424,6.844-3.637,11.633-3.637c4.31,0,7.73,1.021,10.272,3.07c2.534,2.043,3.803,4.826,3.803,8.349
		C966.222,90.841,964.763,94.098,961.843,96.522z M968.307,53.786c-2.35,2.093-5.387,3.139-9.12,3.139
		c-3.449,0-6.177-0.833-8.19-2.499c-2.009-1.664-3.015-3.971-3.015-6.922c0-3.613,1.15-6.443,3.446-8.49
		c2.303-2.044,5.365-3.068,9.196-3.068c3.35,0,6.05,0.834,8.112,2.497c2.057,1.668,3.086,3.975,3.086,6.922
		C971.822,48.886,970.648,51.693,968.307,53.786z"/>
	<path fill="none" d="M957.001,12.056c7.655,0,14.432,1.096,20.317,3.281c5.892,2.19,10.465,5.305,13.719,9.348
		c3.255,4.043,4.885,8.683,4.885,13.913c0,5.519-1.343,10.37-4.021,14.556c-2.685,4.188-6.468,7.563-11.348,10.132
		c6.797,4.948,10.195,11.323,10.195,19.123c0,6.85-1.891,12.795-5.674,17.839c-3.78,5.044-9.072,8.919-15.869,11.629
		c-6.798,2.712-14.602,4.066-23.407,4.066c-8.43,0-15.83-1.19-22.194-3.567c-6.367-2.378-11.3-5.728-14.79-10.06
		c-3.498-4.327-5.24-9.346-5.24-15.057c0-6.373,1.694-11.938,5.098-16.695c3.393-4.756,8.203-8.467,14.432-11.13
		c-4.98-4.376-7.47-9.751-7.47-16.127c0-6.371,1.748-11.915,5.242-16.623c3.494-4.711,8.381-8.325,14.65-10.847
		C941.797,13.318,948.955,12.056,957.001,12.056"/>
	<path fill="none" d="M946.228,96.108c4.784,0,8.637-1.214,11.562-3.641c2.92-2.425,4.379-5.682,4.379-9.771
		c0-3.522-1.27-6.306-3.803-8.349c-2.542-2.049-5.963-3.07-10.273-3.07c-4.788,0-8.667,1.214-11.632,3.637
		c-2.97,2.429-4.451,5.689-4.451,9.777c0,3.521,1.311,6.304,3.948,8.349C938.59,95.087,942.011,96.108,946.228,96.108"/>
	<path fill="none" d="M957.001,10.029c-8.264,0-15.743,1.321-22.232,3.928c-6.598,2.654-11.82,6.53-15.521,11.52
		c-3.743,5.044-5.642,11.044-5.642,17.831c0,5.957,2.013,11.167,5.992,15.528c-5.271,2.687-9.493,6.228-12.579,10.552
		c-3.631,5.078-5.474,11.092-5.474,17.873c0,6.164,1.914,11.66,5.691,16.332c3.698,4.589,8.966,8.184,15.657,10.683
		c6.564,2.452,14.27,3.696,22.903,3.696c9.027,0,17.156-1.418,24.158-4.211c7.121-2.839,12.753-6.977,16.74-12.296
		c4.034-5.377,6.079-11.789,6.079-19.055c0-7.476-2.906-13.805-8.645-18.855c3.941-2.509,7.12-5.629,9.477-9.306
		c2.88-4.502,4.341-9.767,4.341-15.649c0-5.68-1.793-10.788-5.331-15.184c-3.471-4.311-8.38-7.667-14.592-9.978
		C971.934,11.175,964.86,10.029,957.001,10.029L957.001,10.029z"/>
	<g>
		
			<linearGradient id="SVGID_3_" gradientUnits="userSpaceOnUse" x1="949.4453" y1="114.4229" x2="949.4453" y2="10.5391" gradientTransform="matrix(1 0.008 -0.008 1 0.8019 -6.0771)">
			<stop  offset="0" style="stop-color:#2B2B2B"/>
			<stop  offset="0.497" style="stop-color:#E6E6E6"/>
			<stop  offset="0.6242" style="stop-color:#B2B2B2"/>
			<stop  offset="1" style="stop-color:#000000"/>
		</linearGradient>
		<path fill="url(#SVGID_3_)" d="M991.985,53.492c2.713-4.164,4.095-9.004,4.138-14.523c0.042-5.23-1.55-9.882-4.772-13.952
			c-3.222-4.069-7.771-7.22-13.645-9.458c-5.867-2.232-12.634-3.382-20.29-3.444c-8.045-0.064-15.214,1.141-21.505,3.61
			c-6.289,2.472-11.205,6.046-14.737,10.729c-3.531,4.68-5.323,10.21-5.374,16.581c-0.052,6.375,2.396,11.77,7.341,16.186
			c-6.25,2.613-11.091,6.286-14.521,11.015c-3.44,4.729-5.181,10.28-5.23,16.652c-0.045,5.712,1.655,10.744,5.119,15.1
			c3.455,4.359,8.362,7.748,14.71,10.178c6.345,2.427,13.734,3.676,22.164,3.743c8.806,0.071,16.62-1.222,23.439-3.878
			c6.818-2.657,12.142-6.487,15.962-11.502c3.823-5.013,5.762-10.943,5.816-17.794c0.062-7.798-3.286-14.2-10.043-19.203
			C985.459,61.003,989.268,57.658,991.985,53.492z M956.278,90.961c-2.552,2.087-6.017,3.126-10.293,3.091
			c-3.733-0.03-6.765-0.942-9.005-2.712c-2.114-1.671-3.132-3.887-3.108-6.774c0.027-3.482,1.261-6.159,3.771-8.179
			c2.597-2.088,6.089-3.13,10.373-3.096c3.815,0.031,6.836,0.938,8.98,2.692c2.037,1.671,3.017,3.894,2.993,6.796
			C959.962,86.268,958.747,88.944,956.278,90.961z M964.365,49.848c-2.366,2.074-5.41,3.095-9.145,3.065
			c-3.448-0.027-6.17-0.882-8.17-2.563c-1.995-1.68-2.983-3.995-2.96-6.946c0.03-3.613,1.202-6.434,3.515-8.462
			c2.32-2.026,5.391-3.026,9.221-2.996c3.35,0.027,6.042,0.883,8.092,2.562c2.045,1.684,3.055,4,3.03,6.945
			C967.921,44.976,966.725,47.774,964.365,49.848z"/>
		<path d="M956.807,12.113c0.202,0,0.406,0,0.609,0.002c7.656,0.062,14.423,1.212,20.29,3.444
			c5.874,2.238,10.423,5.389,13.645,9.458c3.223,4.069,4.814,8.721,4.772,13.952c-0.043,5.519-1.425,10.359-4.138,14.523
			c-2.718,4.167-6.526,7.511-11.429,10.041c6.757,5.002,10.104,11.405,10.043,19.203c-0.055,6.851-1.993,12.781-5.816,17.794
			c-3.82,5.015-9.144,8.845-15.962,11.502c-6.642,2.587-14.226,3.88-22.75,3.88c-0.23,0-0.46,0-0.689-0.002
			c-8.43-0.067-15.819-1.316-22.164-3.743c-6.348-2.43-11.255-5.818-14.71-10.178c-3.464-4.355-5.164-9.388-5.119-15.1
			c0.05-6.372,1.79-11.923,5.23-16.652c3.431-4.729,8.271-8.402,14.521-11.015c-4.945-4.416-7.393-9.811-7.341-16.186
			c0.051-6.371,1.843-11.901,5.374-16.581c3.532-4.683,8.448-8.257,14.737-10.729C942.042,13.318,949.009,12.113,956.807,12.113
			 M955.379,52.915c3.661,0,6.654-1.022,8.986-3.066c2.359-2.074,3.556-4.872,3.583-8.394c0.024-2.945-0.985-5.262-3.03-6.945
			c-2.05-1.679-4.742-2.535-8.092-2.562c-0.057,0-0.114-0.001-0.17-0.001c-3.752,0-6.765,1-9.051,2.997
			c-2.313,2.028-3.484,4.849-3.515,8.462c-0.023,2.951,0.965,5.266,2.96,6.946c2,1.682,4.722,2.536,8.17,2.563
			C955.274,52.914,955.326,52.915,955.379,52.915 M946.197,94.052c4.18,0,7.57-1.037,10.081-3.091
			c2.469-2.017,3.684-4.693,3.712-8.182c0.023-2.902-0.956-5.125-2.993-6.796c-2.145-1.754-5.165-2.661-8.98-2.692
			c-0.067,0-0.134,0-0.199,0c-4.193,0-7.618,1.041-10.174,3.096c-2.511,2.02-3.744,4.696-3.771,8.179
			c-0.023,2.888,0.994,5.104,3.108,6.774c2.24,1.77,5.271,2.682,9.005,2.712C946.057,94.052,946.126,94.052,946.197,94.052
			 M956.807,10.086c-8.014,0-15.293,1.262-21.636,3.753c-6.622,2.601-11.874,6.435-15.616,11.395
			c-3.781,5.012-5.727,10.996-5.782,17.784c-0.048,5.956,1.924,11.183,5.867,15.576c-5.291,2.644-9.542,6.15-12.661,10.452
			c-3.675,5.049-5.563,11.049-5.617,17.827c-0.049,6.167,1.821,11.677,5.562,16.376c3.658,4.619,8.898,8.256,15.57,10.81
			c6.547,2.504,14.241,3.809,22.873,3.878l0.705,0.002c8.738,0,16.639-1.352,23.486-4.019c7.145-2.783,12.811-6.876,16.838-12.161
			c4.076-5.346,6.172-11.74,6.231-19.007c0.06-7.474-2.795-13.826-8.494-18.922c3.959-2.477,7.164-5.572,9.552-9.23
			c2.918-4.48,4.419-9.733,4.466-15.615c0.046-5.681-1.708-10.803-5.21-15.227c-3.434-4.336-8.315-7.732-14.512-10.093
			c-6.073-2.311-13.137-3.513-20.996-3.576L956.807,10.086L956.807,10.086z M955.379,50.888l-0.143-0.001
			c-2.947-0.024-5.262-0.727-6.881-2.088c-1.524-1.283-2.257-3.042-2.237-5.378c0.026-3.036,0.948-5.31,2.823-6.955
			c1.92-1.677,4.444-2.493,7.715-2.493l0.154,0.001c2.893,0.023,5.124,0.71,6.822,2.103c1.558,1.283,2.309,3.037,2.288,5.361
			c-0.023,2.944-0.97,5.197-2.894,6.888C961.062,50.049,958.559,50.888,955.379,50.888L955.379,50.888z M946.197,92.024h-0.195
			c-3.272-0.025-5.886-0.792-7.765-2.276c-1.613-1.275-2.355-2.916-2.338-5.167c0.023-2.877,0.979-4.979,3.015-6.614
			c2.186-1.758,5.181-2.648,8.903-2.648h0.184c3.338,0.027,5.934,0.779,7.713,2.234c1.552,1.273,2.267,2.93,2.249,5.211
			c-0.023,2.886-0.966,4.992-2.968,6.628C952.857,91.14,949.897,92.024,946.197,92.024L946.197,92.024z"/>
	</g>
	<path fill="#FFFFFF" d="M945.798,113.916c-8.146,0-15.374-1.158-21.483-3.438c-6.001-2.241-10.685-5.415-13.924-9.434
		c-3.223-3.987-4.79-8.497-4.79-13.784c0-6.001,1.544-11.075,4.719-15.516c3.16-4.428,7.729-7.944,13.581-10.446l2.956-1.265
		l-2.416-2.122c-4.563-4.008-6.78-8.785-6.78-14.604c0-5.981,1.584-11.024,4.843-15.415c3.25-4.381,7.885-7.804,13.778-10.175
		c6.007-2.412,12.977-3.635,20.72-3.635c7.376,0,13.975,1.062,19.61,3.155c5.52,2.051,9.841,4.985,12.847,8.719
		c2.985,3.708,4.437,7.843,4.437,12.642c0,5.095-1.245,9.624-3.702,13.463c-2.477,3.864-6.036,7.038-10.586,9.431l-2.878,1.517
		l2.631,1.915c6.299,4.587,9.362,10.306,9.362,17.485c0,6.46-1.725,11.896-5.269,16.621c-3.533,4.716-8.58,8.404-14.998,10.964
		C961.932,112.596,954.311,113.916,945.798,113.916z M957.001,16.11c-7.483,0-14.2,1.174-19.964,3.488
		c-5.541,2.229-9.882,5.426-12.907,9.501c-2.989,4.029-4.442,8.676-4.442,14.207c0,5.202,1.991,9.48,6.092,13.081l4.83,4.244
		l-5.913,2.528c-5.504,2.355-9.786,5.64-12.728,9.762c-2.922,4.086-4.342,8.773-4.342,14.337c0,4.805,1.42,8.898,4.342,12.511
		c3.009,3.734,7.4,6.695,13.054,8.806c5.884,2.198,12.872,3.313,20.775,3.313c8.253,0,15.624-1.271,21.905-3.779
		c6.067-2.417,10.82-5.882,14.127-10.294c3.272-4.361,4.864-9.402,4.864-15.406c0-6.483-2.79-11.666-8.526-15.846l-5.265-3.832
		l5.759-3.033c4.235-2.228,7.539-5.166,9.823-8.73c2.243-3.507,3.382-7.668,3.382-12.37c0-4.319-1.305-8.038-3.989-11.371
		c-2.771-3.446-6.8-6.167-11.972-8.089C970.496,17.129,964.136,16.11,957.001,16.11z"/>
	<path fill="#FFFFFF" d="M946.228,100.163c-5.12,0-9.412-1.318-12.755-3.92c-3.661-2.837-5.518-6.725-5.518-11.552
		c0-5.347,1.997-9.692,5.938-12.915c3.696-3.021,8.474-4.554,14.198-4.554c5.238,0,9.551,1.335,12.816,3.968
		c3.526,2.845,5.313,6.715,5.313,11.506c0,5.333-1.966,9.671-5.844,12.892C956.72,98.623,951.961,100.163,946.228,100.163z
		 M948.092,69.25c-5.246,0-9.591,1.378-12.915,4.094c-3.446,2.819-5.194,6.639-5.194,11.348c0,4.168,1.591,7.516,4.733,9.95
		c2.981,2.318,6.854,3.494,11.512,3.494c5.246,0,9.571-1.382,12.855-4.107c3.392-2.817,5.112-6.631,5.112-11.332
		c0-4.147-1.535-7.487-4.558-9.927C956.739,70.434,952.855,69.25,948.092,69.25z"/>
</g>
<path fill="#FFFFFF" d="M955.132,56.925c-4.396,0-8.023-1.154-10.775-3.43c-2.934-2.429-4.484-5.902-4.484-10.045
	c0-4.801,1.618-8.676,4.808-11.52c3.061-2.716,7.059-4.093,11.89-4.093c4.276,0,7.863,1.145,10.662,3.4
	c3.006,2.435,4.591,5.917,4.591,10.072c0,4.708-1.639,8.561-4.874,11.449C963.845,55.523,959.869,56.925,955.132,56.925z
	 M956.569,29.864c-4.319,0-7.865,1.205-10.542,3.58c-2.738,2.441-4.128,5.808-4.128,10.005c0,3.519,1.297,6.452,3.75,8.483
	c2.377,1.967,5.568,2.965,9.482,2.965c4.225,0,7.747-1.229,10.467-3.652c2.785-2.487,4.197-5.83,4.197-9.936
	c0-3.522-1.327-6.46-3.837-8.497C963.529,30.857,960.37,29.864,956.569,29.864z"/>
<g>
	<polygon opacity="0.5" points="94.096,18.109 73.99,118.002 45.553,118.002 61.207,39.943 42.535,39.943 46.988,18.109 	"/>
	<g>
		<linearGradient id="SVGID_4_" gradientUnits="userSpaceOnUse" x1="64.2603" y1="113.9473" x2="64.2602" y2="14.0552">
			<stop  offset="0" style="stop-color:#2B2B2B"/>
			<stop  offset="0.497" style="stop-color:#E6E6E6"/>
			<stop  offset="0.6242" style="stop-color:#B2B2B2"/>
			<stop  offset="1" style="stop-color:#000000"/>
		</linearGradient>
		<polygon fill="url(#SVGID_4_)" points="90.041,14.055 69.936,113.947 41.498,113.947 57.153,35.889 38.48,35.889 42.934,14.055 		
			"/>
		<path d="M90.041,14.055l-20.105,99.893H41.498l15.655-78.059H38.48l4.454-21.834H90.041 M92.517,12.027h-2.476H42.934h-1.655
			l-0.332,1.622l-4.453,21.834l-0.496,2.432h2.482h16.199L39.511,113.55l-0.487,2.425h2.475h28.438h1.66l0.328-1.627l20.106-99.893
			L92.517,12.027L92.517,12.027z"/>
	</g>
	<polyline fill="none" points="90.041,14.055 69.936,113.947 41.498,113.947 57.153,35.889 38.48,35.889 42.934,14.055 
		90.041,14.055 	"/>
	<polygon fill="none" points="92.517,12.027 90.041,12.027 42.934,12.027 41.278,12.027 40.947,13.649 36.494,35.483 35.998,37.916 
		38.48,37.916 54.679,37.916 39.511,113.55 39.024,115.975 41.498,115.975 69.936,115.975 71.595,115.975 71.923,114.348 
		92.029,14.455 92.517,12.027 	"/>
	<path fill="#FFFFFF" d="M68.275,111.92H43.972l15.654-78.059H40.963l3.626-17.78h42.976L68.275,111.92z M46.446,109.894h20.17
		l18.472-91.785H46.245l-2.799,13.725h18.655L46.446,109.894z"/>
</g>
<path opacity="0" fill="#FFFFFF" d="M128.523,127.856H0V0.143h128.523V127.856z M2.027,125.83h124.469V2.17H2.027V125.83z"/>
<g>
	<path opacity="0.5" d="M195.174,96.596h37.485L228.063,119h-78.276l3.59-17.694l43.949-33.964
		c5.075-3.901,8.569-7.206,10.487-9.919c1.913-2.71,2.871-5.494,2.871-8.347c0-2.853-1.054-5.114-3.159-6.777
		c-2.107-1.665-5.124-2.499-9.048-2.499c-3.544,0-6.919,0.856-10.127,2.569c-3.206,1.712-6.054,4.187-8.545,7.419l-18.958-12.414
		c4.022-6.186,9.741-11.108,17.162-14.771c7.418-3.66,15.679-5.495,24.774-5.495c7.182,0,13.575,1.191,19.176,3.568
		c5.6,2.379,9.982,5.685,13.14,9.917c3.16,4.234,4.74,8.969,4.74,14.199c0,6.281-1.748,12.131-5.242,17.552
		c-3.496,5.424-9.601,11.417-18.311,17.981L195.174,96.596z"/>
	<g>
		<linearGradient id="SVGID_5_" gradientUnits="userSpaceOnUse" x1="190.7588" y1="114.9453" x2="190.7588" y2="13.0552">
			<stop  offset="0" style="stop-color:#2B2B2B"/>
			<stop  offset="0.497" style="stop-color:#E6E6E6"/>
			<stop  offset="0.6242" style="stop-color:#B2B2B2"/>
			<stop  offset="1" style="stop-color:#000000"/>
		</linearGradient>
		<path fill="url(#SVGID_5_)" d="M191.12,92.541h37.485l-4.597,22.404h-78.276l3.59-17.694l43.949-33.964
			c5.075-3.901,8.569-7.206,10.486-9.919c1.914-2.71,2.872-5.494,2.872-8.348c0-2.853-1.054-5.113-3.16-6.777
			c-2.107-1.665-5.124-2.498-9.048-2.498c-3.545,0-6.919,0.856-10.127,2.568c-3.206,1.712-6.054,4.187-8.545,7.42L156.792,33.32
			c4.022-6.186,9.741-11.108,17.162-14.771c7.419-3.661,15.679-5.495,24.775-5.495c7.181,0,13.575,1.191,19.176,3.567
			c5.6,2.38,9.981,5.685,13.14,9.917c3.16,4.234,4.739,8.969,4.739,14.199c0,6.28-1.748,12.13-5.242,17.552
			c-3.495,5.423-9.601,11.417-18.31,17.982L191.12,92.541z"/>
		<path d="M198.729,13.055c7.181,0,13.575,1.191,19.176,3.567c5.6,2.38,9.981,5.685,13.14,9.917
			c3.16,4.234,4.739,8.969,4.739,14.199c0,6.28-1.748,12.13-5.242,17.552c-3.495,5.423-9.601,11.417-18.31,17.982L191.12,92.541
			h37.485l-4.597,22.404h-78.276l3.59-17.694l43.949-33.964c5.075-3.901,8.569-7.206,10.486-9.919
			c1.914-2.71,2.872-5.494,2.872-8.348c0-2.853-1.054-5.113-3.16-6.777c-2.107-1.665-5.124-2.498-9.048-2.498
			c-3.545,0-6.919,0.856-10.127,2.568c-3.206,1.712-6.054,4.187-8.545,7.42L156.792,33.32c4.022-6.186,9.741-11.108,17.162-14.771
			C181.373,14.889,189.633,13.055,198.729,13.055 M198.729,11.027c-9.364,0-18.001,1.919-25.671,5.704
			c-7.715,3.808-13.759,9.018-17.965,15.483l-1.102,1.694l1.69,1.107l18.958,12.414l1.571,1.028l1.146-1.487
			c2.305-2.991,4.962-5.303,7.895-6.87c2.895-1.545,5.981-2.329,9.172-2.329c3.438,0,6.06,0.694,7.791,2.062
			c1.607,1.27,2.389,2.968,2.389,5.187c0,2.447-0.817,4.795-2.5,7.179c-1.79,2.533-5.177,5.723-10.066,9.48l-43.953,33.968
			l-0.597,0.461l-0.15,0.738l-3.59,17.694l-0.493,2.432h2.48h78.276h1.653l0.333-1.619l4.597-22.404l0.5-2.436h-2.485h-31.534
			l16.398-12.636c8.847-6.668,15.17-12.893,18.776-18.49c3.693-5.729,5.566-12.004,5.566-18.649c0-5.654-1.73-10.839-5.142-15.412
			c-3.36-4.501-8.061-8.058-13.972-10.57C212.866,12.282,206.148,11.027,198.729,11.027L198.729,11.027z"/>
	</g>
	<path fill="none" d="M198.729,13.055c7.181,0,13.575,1.191,19.176,3.567c5.6,2.38,9.981,5.685,13.14,9.917
		c3.16,4.234,4.739,8.969,4.739,14.199c0,6.28-1.748,12.13-5.242,17.552c-3.495,5.423-9.601,11.417-18.31,17.982L191.12,92.541
		h37.485l-4.597,22.404h-78.276l3.59-17.694l43.949-33.964c5.075-3.901,8.569-7.206,10.486-9.919
		c1.914-2.71,2.872-5.494,2.872-8.348c0-2.853-1.054-5.113-3.16-6.777c-2.107-1.665-5.124-2.498-9.048-2.498
		c-3.545,0-6.919,0.856-10.127,2.568c-3.206,1.712-6.054,4.187-8.545,7.42L156.792,33.32c4.022-6.186,9.741-11.108,17.162-14.771
		C181.373,14.889,189.633,13.055,198.729,13.055"/>
	<path fill="none" d="M198.729,11.027c-9.364,0-18.001,1.919-25.671,5.704c-7.715,3.808-13.759,9.018-17.965,15.484l-1.102,1.693
		l1.69,1.107l18.958,12.414l1.571,1.028l1.146-1.487c2.305-2.991,4.962-5.303,7.895-6.87c2.895-1.545,5.981-2.329,9.172-2.329
		c3.438,0,6.06,0.694,7.791,2.062c1.607,1.27,2.389,2.968,2.389,5.187c0,2.447-0.817,4.795-2.5,7.179
		c-1.79,2.533-5.177,5.723-10.066,9.48l-43.953,33.968l-0.598,0.461l-0.149,0.738l-3.59,17.694l-0.493,2.432h2.48h78.276h1.654
		l0.332-1.619l4.597-22.404l0.5-2.436h-2.485h-31.534l16.398-12.636c8.847-6.668,15.17-12.893,18.776-18.49
		c3.693-5.729,5.566-12.004,5.566-18.649c0-5.654-1.73-10.839-5.142-15.412c-3.36-4.501-8.061-8.058-13.972-10.57
		C212.866,12.282,206.148,11.027,198.729,11.027L198.729,11.027z"/>
	<path fill="#FFFFFF" d="M222.354,112.918h-74.142l2.947-14.524l0.299-0.23l43.053-33.271c5.283-4.061,8.849-7.447,10.903-10.354
		c2.152-3.049,3.243-6.251,3.243-9.518c0-3.442-1.359-6.336-3.93-8.368c-2.466-1.947-5.933-2.935-10.305-2.935
		c-3.864,0-7.592,0.944-11.083,2.807c-2.7,1.443-5.203,3.417-7.435,5.868l-0.582,0.639l-15.697-10.279l0.679-0.869
		c3.665-4.686,8.558-8.561,14.547-11.516c7.107-3.507,15.141-5.286,23.877-5.286c6.871,0,13.055,1.146,18.384,3.406
		c5.241,2.228,9.382,5.344,12.308,9.264c2.918,3.911,4.336,8.159,4.336,12.987c0,5.854-1.655,11.39-4.918,16.454
		c-3.346,5.191-9.344,11.066-17.827,17.459l-25.844,19.916h40.952L222.354,112.918z M150.693,110.891h70.009l2.934-14.295h-44.418
		l30.566-23.557c8.3-6.256,14.135-11.955,17.351-16.945c3.05-4.731,4.596-9.897,4.596-15.355c0-4.374-1.287-8.227-3.935-11.775
		c-2.708-3.627-6.569-6.524-11.475-8.609c-5.077-2.153-10.996-3.245-17.592-3.245c-8.423,0-16.154,1.708-22.98,5.076
		c-5.341,2.636-9.76,6.027-13.152,10.088l12.401,8.121c2.238-2.331,4.719-4.231,7.388-5.657c3.787-2.022,7.836-3.047,12.037-3.047
		c4.84,0,8.729,1.134,11.562,3.372c3.075,2.431,4.7,5.874,4.7,9.958c0,3.694-1.216,7.29-3.614,10.688
		c-2.174,3.075-5.876,6.604-11.322,10.788l-42.752,33.041L150.693,110.891z"/>
</g>
<path opacity="0" fill="#FFFFFF" d="M255.023,127.856H126.496V0.143h128.527V127.856z M128.523,125.83h124.473V2.17H128.523V125.83z
	"/>
<g>
	<path opacity="0.5" d="M365.405,34.805l-25.71,22.975c6.51,1.808,11.562,4.875,15.153,9.206c3.59,4.329,5.387,9.586,5.387,15.767
		c0,6.946-2.107,13.152-6.322,18.623c-4.213,5.47-10.004,9.775-17.377,12.915c-7.374,3.14-15.704,4.71-24.99,4.71
		c-7.374,0-14.315-0.929-20.826-2.784c-6.511-1.854-12.158-4.589-16.948-8.205l13.214-20.12c3.541,2.663,7.635,4.71,12.28,6.136
		c4.642,1.427,9.358,2.14,14.146,2.14c5.839,0,10.316-1.021,13.43-3.066c3.109-2.045,4.667-4.926,4.667-8.636
		c0-5.61-4.454-8.417-13.359-8.417h-12.208l3.591-17.838l21.543-19.266h-39.354l4.454-21.834h72.674L365.405,34.805z"/>
	<g>
		<linearGradient id="SVGID_6_" gradientUnits="userSpaceOnUse" x1="317.2568" y1="114.9453" x2="317.2568" y2="13.0552">
			<stop  offset="0" style="stop-color:#2B2B2B"/>
			<stop  offset="0.497" style="stop-color:#E6E6E6"/>
			<stop  offset="0.6242" style="stop-color:#B2B2B2"/>
			<stop  offset="1" style="stop-color:#000000"/>
		</linearGradient>
		<path fill="url(#SVGID_6_)" d="M361.351,30.75l-25.71,22.976c6.51,1.807,11.563,4.875,15.154,9.205
			c3.59,4.331,5.387,9.586,5.387,15.767c0,6.946-2.107,13.153-6.322,18.623c-4.213,5.47-10.004,9.775-17.378,12.915
			c-7.373,3.14-15.704,4.71-24.989,4.71c-7.374,0-14.315-0.929-20.827-2.783c-6.511-1.855-12.158-4.589-16.948-8.206l13.214-20.119
			c3.541,2.662,7.635,4.709,12.28,6.135c4.643,1.427,9.358,2.14,14.147,2.14c5.839,0,10.316-1.021,13.43-3.066
			c3.109-2.045,4.667-4.926,4.667-8.636c0-5.61-4.453-8.417-13.359-8.417h-12.208l3.591-17.838l21.543-19.265h-39.353l4.453-21.834
			h72.674L361.351,30.75z"/>
		<path d="M364.797,13.055l-3.446,17.695l-25.71,22.976c6.51,1.807,11.563,4.875,15.154,9.205c3.59,4.331,5.387,9.586,5.387,15.767
			c0,6.946-2.107,13.153-6.322,18.623c-4.213,5.47-10.004,9.775-17.378,12.915c-7.373,3.14-15.704,4.71-24.989,4.71
			c-7.374,0-14.315-0.929-20.827-2.783c-6.511-1.855-12.158-4.589-16.948-8.206l13.214-20.119c3.541,2.662,7.635,4.709,12.28,6.135
			c4.643,1.427,9.358,2.14,14.147,2.14c5.839,0,10.316-1.021,13.43-3.066c3.109-2.045,4.667-4.926,4.667-8.636
			c0-5.61-4.453-8.417-13.359-8.417h-12.208l3.591-17.838l21.543-19.265h-39.353l4.453-21.834H364.797 M367.257,11.027h-2.46
			h-72.674h-1.655l-0.332,1.623l-4.454,21.834l-0.496,2.432h2.482h34.045l-17.586,15.727l-0.503,0.45l-0.133,0.661l-3.591,17.838
			l-0.488,2.428h2.476h12.208c11.332,0,11.332,4.642,11.332,6.39c0,3.01-1.228,5.28-3.753,6.941
			c-2.762,1.813-6.906,2.733-12.316,2.733c-4.566,0-9.125-0.688-13.551-2.051c-4.396-1.348-8.318-3.306-11.658-5.816l-1.727-1.299
			l-1.186,1.806l-13.214,20.12l-1.042,1.585l1.516,1.145c4.966,3.752,10.892,6.624,17.614,8.539
			c6.664,1.898,13.858,2.86,21.382,2.86c9.517,0,18.192-1.64,25.783-4.872c7.662-3.263,13.781-7.818,18.19-13.543
			c4.474-5.807,6.743-12.49,6.743-19.86c0-6.636-1.97-12.377-5.853-17.061c-3.179-3.833-7.453-6.767-12.735-8.748l23.083-20.626
			l0.508-0.455l0.13-0.669l3.447-17.695L367.257,11.027L367.257,11.027z"/>
	</g>
	<path fill="none" d="M364.797,13.055l-3.446,17.695l-25.71,22.976c6.51,1.807,11.563,4.875,15.154,9.205
		c3.59,4.331,5.387,9.586,5.387,15.767c0,6.946-2.107,13.153-6.322,18.623c-4.213,5.47-10.004,9.775-17.378,12.915
		c-7.373,3.14-15.704,4.71-24.989,4.71c-7.374,0-14.315-0.929-20.827-2.783c-6.511-1.855-12.158-4.589-16.948-8.206l13.214-20.119
		c3.541,2.662,7.635,4.709,12.28,6.135c4.643,1.427,9.358,2.14,14.147,2.14c5.839,0,10.316-1.021,13.43-3.066
		c3.109-2.045,4.667-4.926,4.667-8.636c0-5.61-4.453-8.417-13.359-8.417h-12.208l3.591-17.838l21.543-19.265h-39.353l4.453-21.834
		H364.797"/>
	<path fill="none" d="M367.257,11.027h-2.46h-72.674h-1.655l-0.332,1.623l-4.454,21.834l-0.496,2.432h2.482h34.045l-17.586,15.727
		l-0.503,0.45l-0.133,0.661l-3.591,17.838l-0.488,2.428h2.476h12.208c11.332,0,11.332,4.642,11.332,6.39
		c0,3.01-1.228,5.28-3.754,6.943c-2.761,1.812-6.905,2.731-12.315,2.731c-4.566,0-9.125-0.688-13.551-2.051
		c-4.396-1.348-8.318-3.306-11.658-5.816l-1.727-1.299l-1.186,1.806l-13.214,20.12l-1.042,1.585l1.516,1.145
		c4.966,3.752,10.892,6.624,17.614,8.539c6.664,1.898,13.858,2.86,21.382,2.86c9.517,0,18.192-1.64,25.783-4.872
		c7.661-3.263,13.781-7.818,18.189-13.543c4.475-5.807,6.744-12.49,6.744-19.86c0-6.636-1.969-12.377-5.853-17.061
		c-3.18-3.833-7.453-6.767-12.735-8.748l23.083-20.626l0.508-0.455l0.13-0.67l3.447-17.695L367.257,11.027L367.257,11.027z"/>
	<path fill="#FFFFFF" d="M307.491,112.918c-7.15,0-13.97-0.91-20.271-2.706c-5.182-1.477-9.858-3.563-13.898-6.2l-0.852-0.557
		l10.995-16.742l0.842,0.53c3.098,1.948,6.566,3.519,10.309,4.664c4.813,1.481,9.772,2.231,14.742,2.231
		c6.303,0,11.06-1.112,14.543-3.399c3.651-2.401,5.582-5.975,5.582-10.33c0-4.765-2.669-10.444-15.386-10.444h-9.732l2.969-14.749
		l24.998-22.355h-42.179l3.627-17.779h68.559l-2.847,14.611l-27.967,24.994l3.574,0.992c6.075,1.687,10.83,4.562,14.135,8.545
		c3.311,3.993,4.92,8.727,4.92,14.474c0,6.547-1.93,12.234-5.9,17.386c-3.981,5.167-9.555,9.301-16.567,12.288
		C324.601,111.388,316.46,112.918,307.491,112.918z M275.288,102.859c3.671,2.271,7.867,4.086,12.489,5.404
		c6.12,1.742,12.753,2.627,19.715,2.627c8.695,0,16.568-1.475,23.401-4.385c6.688-2.849,11.989-6.772,15.755-11.66
		c3.686-4.783,5.479-10.067,5.479-16.148c0-5.254-1.457-9.566-4.453-13.179c-3.036-3.66-7.449-6.313-13.118-7.886l-7.149-1.986
		l30.226-27.011l2.245-11.527h-64.443l-2.799,13.726h45.004l-28.45,25.443l-2.348,11.66h7.255c15.151,0,17.414,7.813,17.414,12.472
		c0,5.07-2.246,9.229-6.496,12.025c-3.825,2.51-8.945,3.731-15.656,3.731c-5.171,0-10.331-0.78-15.337-2.32
		c-3.575-1.095-6.917-2.562-9.946-4.367L275.288,102.859z"/>
</g>
<path opacity="0" fill="#FFFFFF" d="M381.52,127.856H252.996V0.143H381.52V127.856z M255.023,125.83h124.469V2.17H255.023V125.83z"
	/>
<g>
	<polygon opacity="0.5" points="493.338,98.878 478.401,98.878 474.522,118.002 446.948,118.002 450.826,98.878 397.686,98.878 
		401.276,80.467 457.863,18.109 488.456,18.109 436.607,76.476 456.57,76.476 460.018,59.491 486.301,59.491 482.854,76.476 
		497.933,76.476 	"/>
	<g>
		<linearGradient id="SVGID_7_" gradientUnits="userSpaceOnUse" x1="443.7549" y1="113.9473" x2="443.7549" y2="14.0552">
			<stop  offset="0" style="stop-color:#2B2B2B"/>
			<stop  offset="0.497" style="stop-color:#E6E6E6"/>
			<stop  offset="0.6242" style="stop-color:#B2B2B2"/>
			<stop  offset="1" style="stop-color:#000000"/>
		</linearGradient>
		<polygon fill="url(#SVGID_7_)" points="489.284,94.824 474.347,94.824 470.468,113.947 442.894,113.947 446.772,94.824 
			393.631,94.824 397.221,76.413 453.809,14.055 484.402,14.055 432.553,72.422 452.516,72.422 455.964,55.437 482.247,55.437 
			478.8,72.422 493.878,72.422 		"/>
		<path d="M484.402,14.055l-51.849,58.367h19.963l3.448-16.985h26.283L478.8,72.422h15.078l-4.595,22.402h-14.937l-3.879,19.123
			h-27.574l3.878-19.123h-53.141l3.59-18.411l56.587-62.358H484.402 M488.915,12.027h-4.513h-30.593h-0.897l-0.604,0.665
			L395.72,75.051l-0.38,0.42l-0.108,0.554l-3.59,18.411l-0.471,2.415h2.461h50.661l-3.385,16.693l-0.493,2.431h2.479h27.574h1.657
			l0.33-1.623l3.549-17.501h13.28h1.654l0.332-1.619l4.595-22.402l0.5-2.435h-2.486H481.28l2.954-14.555l0.493-2.43h-2.479h-26.283
			h-1.657l-0.33,1.625l-3.118,15.36h-13.793l48.852-54.994L488.915,12.027L488.915,12.027z"/>
	</g>
	<polyline fill="none" points="484.402,14.055 432.553,72.422 452.516,72.422 455.964,55.437 482.247,55.437 478.8,72.422 
		493.878,72.422 489.284,94.824 474.347,94.824 470.468,113.947 442.894,113.947 446.772,94.824 393.631,94.824 397.221,76.413 
		453.809,14.055 484.402,14.055 	"/>
	<polygon fill="none" points="488.915,12.027 484.402,12.027 453.809,12.027 452.911,12.027 452.307,12.692 395.72,75.051 
		395.34,75.471 395.232,76.024 391.642,94.436 391.17,96.851 393.631,96.851 444.292,96.851 440.907,113.544 440.414,115.975 
		442.894,115.975 470.468,115.975 472.125,115.975 472.455,114.352 476.004,96.851 489.284,96.851 490.938,96.851 491.27,95.231 
		495.864,72.829 496.364,70.395 493.878,70.395 481.28,70.395 484.233,55.84 484.727,53.41 482.247,53.41 455.964,53.41 
		454.307,53.41 453.977,55.034 450.859,70.395 437.065,70.395 485.917,15.401 488.915,12.027 	"/>
	<path fill="#FFFFFF" d="M468.811,111.92h-23.437l3.877-19.123h-53.16l3.011-15.439l55.604-61.276h25.183L428.04,74.449h26.133
		l3.448-16.985h22.147l-3.447,16.985h15.072l-3.763,18.348h-14.941L468.811,111.92z M447.853,109.894h19.301l3.878-19.124h14.944
		l2.932-14.294H473.84l3.446-16.984h-18.009l-3.448,16.984h-32.302l51.849-58.367h-19.772l-54.622,60.19l-2.431,12.471h53.177
		L447.853,109.894z"/>
</g>
<path opacity="0" fill="#FFFFFF" d="M508.018,127.856H379.492V0.143h128.525V127.856z M381.52,125.83H505.99V2.17H381.52V125.83z"/>
<g>
	<path opacity="0.5" d="M576.246,38.943l-4.165,14.556h4.309c12.254,0,21.591,2.379,28.007,7.134
		c6.412,4.759,9.623,11.657,9.623,20.694c0,7.614-2.083,14.27-6.248,19.979c-4.165,5.707-9.935,10.084-17.309,13.127
		c-7.372,3.043-15.749,4.567-25.131,4.567c-7.375,0-14.318-0.929-20.827-2.784c-6.512-1.854-12.161-4.589-16.947-8.205l13.213-20.12
		c3.542,2.663,7.634,4.71,12.278,6.136c4.646,1.427,9.361,2.14,14.15,2.14c5.744,0,10.197-1.021,13.356-3.066
		c3.16-2.045,4.738-4.876,4.738-8.493c0-2.945-1.27-5.208-3.806-6.778c-2.536-1.568-6.63-2.352-12.279-2.352h-28.868l16.804-58.368
		h63.912l-4.451,21.834H576.246z"/>
	<g>
		<linearGradient id="SVGID_8_" gradientUnits="userSpaceOnUse" x1="570.2529" y1="114.9453" x2="570.2529" y2="13.0552">
			<stop  offset="0" style="stop-color:#2B2B2B"/>
			<stop  offset="0.497" style="stop-color:#E6E6E6"/>
			<stop  offset="0.6242" style="stop-color:#B2B2B2"/>
			<stop  offset="1" style="stop-color:#000000"/>
		</linearGradient>
		<path fill="url(#SVGID_8_)" d="M572.191,34.889l-4.164,14.556h4.309c12.254,0,21.592,2.378,28.008,7.134
			c6.412,4.759,9.622,11.656,9.622,20.693c0,7.614-2.083,14.27-6.248,19.979c-4.166,5.707-9.935,10.084-17.309,13.127
			c-7.373,3.043-15.75,4.567-25.131,4.567c-7.375,0-14.318-0.929-20.827-2.783c-6.512-1.855-12.16-4.589-16.947-8.206l13.214-20.119
			c3.542,2.662,7.633,4.709,12.278,6.135c4.646,1.427,9.361,2.14,14.15,2.14c5.744,0,10.197-1.021,13.356-3.066
			c3.16-2.045,4.738-4.876,4.738-8.493c0-2.945-1.27-5.208-3.806-6.778c-2.536-1.567-6.63-2.352-12.279-2.352h-28.868l16.803-58.367
			h63.913l-4.452,21.834H572.191z"/>
		<path d="M617.002,13.055l-4.452,21.834h-40.36l-4.164,14.556h4.309c12.254,0,21.592,2.378,28.008,7.134
			c6.412,4.759,9.622,11.656,9.622,20.693c0,7.614-2.083,14.27-6.248,19.979c-4.166,5.707-9.935,10.084-17.309,13.127
			c-7.373,3.043-15.75,4.567-25.131,4.567c-7.375,0-14.318-0.929-20.827-2.783c-6.512-1.855-12.16-4.589-16.947-8.206l13.214-20.119
			c3.542,2.662,7.633,4.709,12.278,6.135c4.646,1.427,9.361,2.14,14.15,2.14c5.744,0,10.197-1.021,13.356-3.066
			c3.16-2.045,4.738-4.876,4.738-8.493c0-2.945-1.27-5.208-3.806-6.778c-2.536-1.567-6.63-2.352-12.279-2.352h-28.868l16.803-58.367
			H617.002 M619.485,11.027h-2.482H553.09h-1.526l-0.421,1.466l-16.804,58.368l-0.745,2.588h2.693h28.868
			c5.241,0,9.014,0.688,11.213,2.049c1.94,1.201,2.845,2.808,2.845,5.054c0,2.908-1.247,5.132-3.813,6.791
			c-2.81,1.819-6.932,2.741-12.254,2.741c-4.565,0-9.126-0.688-13.554-2.051c-4.393-1.348-8.313-3.304-11.655-5.816l-1.727-1.299
			l-1.186,1.806l-13.213,20.12l-1.042,1.585l1.514,1.145c4.963,3.75,10.889,6.622,17.614,8.539c6.662,1.898,13.856,2.86,21.382,2.86
			c9.6,0,18.315-1.588,25.904-4.72c7.688-3.174,13.803-7.817,18.173-13.807c4.405-6.04,6.638-13.163,6.638-21.175
			c0-9.668-3.513-17.179-10.441-22.322c-6.746-4.999-16.575-7.533-29.216-7.533h-1.62l3.004-10.501h38.832h1.656l0.331-1.623
			l4.451-21.834L619.485,11.027L619.485,11.027z"/>
	</g>
	<path fill="none" d="M617.002,13.055l-4.452,21.834h-40.36l-4.164,14.556h4.309c12.254,0,21.592,2.378,28.008,7.134
		c6.412,4.759,9.622,11.656,9.622,20.693c0,7.614-2.083,14.27-6.248,19.979c-4.166,5.707-9.935,10.084-17.309,13.127
		c-7.373,3.043-15.75,4.567-25.131,4.567c-7.375,0-14.318-0.929-20.827-2.783c-6.512-1.855-12.16-4.589-16.947-8.206l13.214-20.119
		c3.542,2.662,7.633,4.709,12.278,6.135c4.646,1.427,9.361,2.14,14.15,2.14c5.744,0,10.197-1.021,13.356-3.066
		c3.16-2.045,4.738-4.876,4.738-8.493c0-2.945-1.27-5.208-3.806-6.778c-2.536-1.567-6.63-2.352-12.279-2.352h-28.868l16.803-58.367
		H617.002"/>
	<path fill="none" d="M619.485,11.027h-2.482H553.09h-1.525l-0.423,1.466l-16.804,58.368l-0.745,2.588h2.693h28.868
		c5.241,0,9.015,0.688,11.213,2.049c1.94,1.201,2.845,2.808,2.845,5.054c0,2.908-1.247,5.132-3.813,6.791
		c-2.81,1.819-6.932,2.741-12.254,2.741c-4.565,0-9.125-0.69-13.554-2.051c-4.393-1.348-8.313-3.304-11.655-5.816l-1.727-1.299
		l-1.186,1.806l-13.213,20.12l-1.042,1.585l1.514,1.145c4.963,3.75,10.889,6.622,17.614,8.539c6.662,1.898,13.856,2.86,21.382,2.86
		c9.6,0,18.315-1.588,25.904-4.72c7.688-3.174,13.803-7.817,18.173-13.807c4.405-6.04,6.638-13.163,6.638-21.175
		c0-9.668-3.513-17.178-10.441-22.322c-6.746-4.999-16.575-7.533-29.216-7.533h-1.62l3.004-10.501h38.832h1.656l0.331-1.623
		l4.451-21.834L619.485,11.027L619.485,11.027z"/>
	<path fill="#FFFFFF" d="M561.278,112.918c-7.151,0-13.973-0.91-20.272-2.706c-5.178-1.475-9.854-3.562-13.897-6.198l-0.852-0.557
		l10.997-16.744l0.841,0.53c3.091,1.946,6.559,3.517,10.306,4.664c4.811,1.481,9.771,2.231,14.745,2.231
		c6.117,0,10.982-1.143,14.458-3.394c3.706-2.396,5.664-5.923,5.664-10.193c0-3.632-1.648-6.572-4.766-8.502
		c-2.891-1.786-7.257-2.655-13.346-2.655H538.98l15.635-54.313h59.905l-3.625,17.779h-40.232l-5.324,18.61h6.997
		c11.752,0,20.77,2.266,26.801,6.735c5.923,4.397,8.802,10.633,8.802,19.065c0,7.234-1.917,13.379-5.859,18.785
		c-3.924,5.377-9.457,9.564-16.443,12.446C578.541,111.434,570.346,112.918,561.278,112.918z M529.074,102.861
		c3.673,2.271,7.869,4.086,12.488,5.402c6.118,1.742,12.751,2.627,19.715,2.627c8.801,0,16.736-1.433,23.584-4.26
		c6.637-2.74,11.879-6.699,15.58-11.77c3.68-5.046,5.469-10.801,5.469-17.59c0-7.746-2.611-13.45-7.982-17.437
		c-5.674-4.204-14.285-6.336-25.594-6.336h-9.686l6.484-22.664h40.105l2.798-13.726h-55.896l-14.469,50.258h23.482
		c6.478,0,11.191,0.969,14.412,2.958c3.748,2.32,5.727,5.855,5.727,10.227c0,4.993-2.278,9.107-6.589,11.896
		c-3.809,2.467-9.044,3.718-15.559,3.718c-5.176,0-10.337-0.78-15.34-2.32c-3.578-1.097-6.919-2.563-9.943-4.367L529.074,102.861z"
		/>
</g>
<path opacity="0" fill="#FFFFFF" d="M634.516,127.856H505.99V0.143h128.525V127.856z M508.018,125.83h124.471V2.17H508.018V125.83z"
	/>
<g>
	<path opacity="0.5" d="M722.422,57.779c-4.888-2.282-10.104-3.425-15.659-3.425c-8.424,0-15.271,2.191-20.538,6.565
		c1.917-6.852,5.315-12.296,10.198-16.339c4.882-4.042,11.252-6.065,19.102-6.065c7.564,0,13.739,1.618,18.528,4.853l12.927-19.979
		c-3.354-2.285-7.661-4.068-12.927-5.352c-5.267-1.284-10.916-1.926-16.946-1.926c-13.791,0-25.401,3.139-34.829,9.418
		c-9.433,6.278-16.397,14.248-20.897,23.903c-4.502,9.657-6.751,19.62-6.751,29.897c0,8.754,1.771,16.172,5.315,22.257
		c3.54,6.094,8.447,10.683,14.72,13.775c6.27,3.09,13.522,4.636,21.759,4.636c8.138,0,15.39-1.498,21.761-4.493
		c6.366-2.996,11.369-7.279,15.008-12.843c3.639-5.566,5.458-12.058,5.458-19.479c0-5.997-1.485-11.152-4.452-15.483
		C731.228,63.372,727.304,60.063,722.422,57.779z M706.478,96.093c-2.78,2.526-6.227,3.785-10.342,3.785
		c-4.118,0-7.323-1.118-9.622-3.355c-2.298-2.235-3.446-5.066-3.446-8.491c0-3.997,1.384-7.228,4.163-9.702
		c2.775-2.473,6.319-3.71,10.627-3.71c3.928,0,7.038,1,9.339,2.995c2.298,2,3.444,4.759,3.444,8.277
		C710.641,90.176,709.255,93.578,706.478,96.093z"/>
	<path fill="none" d="M713.052,12.056c6.03,0,11.681,0.642,16.946,1.926c5.266,1.284,9.573,3.067,12.927,5.352l-12.927,19.979
		c-4.789-3.235-10.964-4.854-18.528-4.854c-7.85,0-14.22,2.023-19.102,6.066c-4.882,4.043-8.281,9.488-10.197,16.339
		c5.266-4.374,12.113-6.565,20.537-6.565c5.555,0,10.771,1.143,15.659,3.425c4.882,2.284,8.806,5.592,11.775,9.92
		c2.968,4.331,4.452,9.485,4.452,15.482c0,7.422-1.819,13.913-5.458,19.479c-3.639,5.563-8.642,9.848-15.008,12.843
		c-6.371,2.995-13.622,4.494-21.761,4.494c-8.235,0-15.489-1.547-21.759-4.637c-6.271-3.093-11.18-7.682-14.719-13.774
		c-3.546-6.086-5.315-13.504-5.315-22.258c0-10.276,2.249-20.24,6.75-29.897c4.5-9.655,11.465-17.624,20.897-23.903
		C687.65,15.195,699.262,12.056,713.052,12.056"/>
	<path fill="none" d="M692.081,95.823c4.115,0,7.563-1.259,10.342-3.785c2.777-2.514,4.163-5.917,4.163-10.201
		c0-3.518-1.146-6.277-3.444-8.277c-2.301-1.995-5.41-2.995-9.338-2.995c-4.309,0-7.852,1.237-10.627,3.71
		c-2.78,2.475-4.164,5.706-4.164,9.702c0,3.426,1.148,6.256,3.447,8.491C684.758,94.705,687.963,95.823,692.081,95.823"/>
	<path fill="none" d="M713.052,10.029c-14.135,0-26.23,3.283-35.953,9.758c-9.698,6.457-16.97,14.778-21.61,24.734
		c-4.604,9.878-6.94,20.227-6.94,30.753c0,9.079,1.881,16.91,5.591,23.279c3.724,6.408,8.964,11.312,15.574,14.57
		c6.522,3.217,14.145,4.847,22.655,4.847c8.397,0,16.01-1.576,22.624-4.687c6.679-3.144,12.009-7.707,15.841-13.566
		c3.841-5.878,5.789-12.805,5.789-20.591c0-6.379-1.617-11.974-4.807-16.628c-3.166-4.613-7.4-8.182-12.589-10.61
		c-5.142-2.399-10.698-3.616-16.519-3.616c-6.3,0-11.829,1.194-16.519,3.558c1.837-3.884,4.338-7.147,7.472-9.743
		c4.487-3.716,10.479-5.6,17.809-5.6c7.115,0,12.967,1.517,17.394,4.506l1.713,1.157l1.124-1.735l12.928-19.979l1.075-1.662
		l-1.638-1.115c-3.537-2.411-8.11-4.311-13.587-5.646C725.078,10.696,719.215,10.029,713.052,10.029L713.052,10.029z"/>
	<g>
		<linearGradient id="SVGID_9_" gradientUnits="userSpaceOnUse" x1="696.75" y1="115.9434" x2="696.75" y2="12.0566">
			<stop  offset="0" style="stop-color:#2B2B2B"/>
			<stop  offset="0.497" style="stop-color:#E6E6E6"/>
			<stop  offset="0.6242" style="stop-color:#B2B2B2"/>
			<stop  offset="1" style="stop-color:#000000"/>
		</linearGradient>
		<path fill="url(#SVGID_9_)" d="M718.367,53.725c-4.888-2.282-10.104-3.425-15.659-3.425c-8.424,0-15.271,2.191-20.537,6.565
			c1.916-6.852,5.315-12.296,10.197-16.339c4.882-4.042,11.252-6.066,19.102-6.066c7.564,0,13.739,1.619,18.528,4.854l12.927-19.979
			c-3.354-2.285-7.661-4.068-12.927-5.352c-5.266-1.284-10.916-1.926-16.946-1.926c-13.79,0-25.401,3.139-34.829,9.418
			c-9.433,6.279-16.397,14.248-20.897,23.903c-4.501,9.657-6.75,19.622-6.75,29.897c0,8.754,1.77,16.172,5.315,22.258
			c3.539,6.093,8.447,10.682,14.719,13.774c6.27,3.09,13.523,4.637,21.759,4.637c8.139,0,15.39-1.499,21.761-4.494
			c6.366-2.995,11.369-7.279,15.008-12.843c3.639-5.566,5.458-12.058,5.458-19.479c0-5.997-1.484-11.151-4.452-15.482
			C727.173,59.317,723.249,56.009,718.367,53.725z M701.063,90.536c-2.415,2.195-5.353,3.26-8.981,3.26
			c-3.6,0-6.285-0.91-8.208-2.781c-1.906-1.853-2.833-4.155-2.833-7.038c0-3.423,1.141-6.101,3.484-8.188
			c2.415-2.152,5.45-3.197,9.279-3.197c3.45,0,6.071,0.817,8.01,2.5c1.847,1.605,2.745,3.813,2.745,6.745
			C704.559,85.561,703.415,88.405,701.063,90.536z"/>
		<path d="M713.052,12.056c6.03,0,11.681,0.642,16.946,1.926c5.266,1.284,9.573,3.067,12.927,5.352l-12.927,19.979
			c-4.789-3.235-10.964-4.854-18.528-4.854c-7.85,0-14.22,2.023-19.102,6.066c-4.882,4.043-8.281,9.488-10.197,16.339
			c5.266-4.374,12.113-6.565,20.537-6.565c5.555,0,10.771,1.143,15.659,3.425c4.882,2.284,8.806,5.592,11.775,9.92
			c2.968,4.331,4.452,9.485,4.452,15.482c0,7.422-1.819,13.913-5.458,19.479c-3.639,5.563-8.642,9.848-15.008,12.843
			c-6.371,2.995-13.622,4.494-21.761,4.494c-8.235,0-15.489-1.547-21.759-4.637c-6.271-3.093-11.18-7.682-14.719-13.774
			c-3.546-6.086-5.315-13.504-5.315-22.258c0-10.276,2.249-20.24,6.75-29.897c4.5-9.655,11.465-17.624,20.897-23.903
			C687.65,15.195,699.262,12.056,713.052,12.056 M692.081,93.796c3.629,0,6.566-1.064,8.981-3.26
			c2.353-2.131,3.496-4.976,3.496-8.699c0-2.932-0.898-5.14-2.745-6.745c-1.938-1.683-4.56-2.5-8.01-2.5
			c-3.829,0-6.864,1.045-9.279,3.197c-2.344,2.087-3.484,4.765-3.484,8.188c0,2.883,0.927,5.186,2.833,7.038
			C685.796,92.886,688.481,93.796,692.081,93.796 M713.052,10.029c-14.135,0-26.23,3.283-35.953,9.759
			c-9.698,6.456-16.97,14.777-21.61,24.733c-4.604,9.878-6.94,20.225-6.94,30.753c0,9.079,1.881,16.91,5.591,23.279
			c3.724,6.408,8.964,11.312,15.574,14.57c6.522,3.217,14.145,4.847,22.655,4.847c8.397,0,16.01-1.576,22.624-4.687
			c6.677-3.142,12.009-7.707,15.841-13.566c3.841-5.878,5.789-12.805,5.789-20.591c0-6.379-1.617-11.974-4.807-16.628
			c-3.166-4.613-7.402-8.182-12.589-10.61c-5.142-2.399-10.698-3.616-16.519-3.616c-6.3,0-11.831,1.194-16.519,3.558
			c1.837-3.883,4.338-7.147,7.472-9.743c4.487-3.716,10.479-5.6,17.809-5.6c7.115,0,12.967,1.517,17.394,4.506l1.713,1.157
			l1.124-1.735l12.928-19.979l1.075-1.663l-1.638-1.114c-3.537-2.412-8.11-4.311-13.587-5.646
			C725.078,10.696,719.215,10.029,713.052,10.029L713.052,10.029z M692.081,91.77c-3.045,0-5.269-0.723-6.794-2.208
			c-1.515-1.471-2.22-3.246-2.22-5.585c0-2.849,0.891-4.971,2.806-6.673c2.026-1.808,4.62-2.685,7.931-2.685
			c2.941,0,5.127,0.655,6.681,2.003c1.396,1.216,2.047,2.873,2.047,5.215c0,3.162-0.898,5.448-2.828,7.196
			C697.647,90.9,695.227,91.77,692.081,91.77L692.081,91.77z"/>
	</g>
	<path fill="#FFFFFF" d="M692.368,113.916c-7.881,0-14.901-1.491-20.862-4.429c-5.882-2.898-10.546-7.264-13.863-12.975
		c-3.344-5.739-5.041-12.886-5.041-21.238c0-9.932,2.208-19.701,6.562-29.041c4.321-9.271,11.111-17.033,20.183-23.071
		c9.045-6.024,20.385-9.079,33.706-9.079c5.842,0,11.383,0.629,16.465,1.869c3.69,0.898,6.925,2.069,9.613,3.476l0.986,0.515
		l-10.734,16.59l-0.817-0.425c-4.688-2.438-10.438-3.674-17.095-3.674c-8.299,0-15.16,2.197-20.396,6.532
		c-5.183,4.294-8.835,10.133-10.854,17.355l-1.75,6.256l4.997-4.151c4.871-4.045,11.347-6.098,19.242-6.098
		c5.225,0,10.205,1.089,14.802,3.235c4.523,2.117,8.212,5.223,10.962,9.23c2.756,4.024,4.096,8.713,4.096,14.335
		c0,6.986-1.727,13.167-5.127,18.371c-3.415,5.223-8.185,9.299-14.175,12.116C707.194,112.469,700.164,113.916,692.368,113.916z
		 M713.052,16.11c-12.913,0-23.877,2.94-32.582,8.738c-8.756,5.829-15.307,13.313-19.47,22.242
		c-4.227,9.069-6.371,18.552-6.371,28.184c0,7.99,1.604,14.792,4.766,20.219c3.114,5.36,7.489,9.457,13.006,12.177
		c5.683,2.799,12.399,4.219,19.968,4.219c7.495,0,14.235-1.382,20.034-4.107c5.646-2.657,10.134-6.49,13.339-11.392
		c3.186-4.87,4.799-10.679,4.799-17.263c0-5.201-1.224-9.515-3.739-13.188c-2.542-3.706-5.957-6.579-10.15-8.541
		c-4.325-2.02-9.017-3.044-13.942-3.044c-7.41,0-13.448,1.895-17.948,5.63l-9.993,8.304l3.5-12.515
		c2.132-7.627,6.007-13.807,11.514-18.371c5.61-4.643,12.908-6.997,21.689-6.997c6.604,0,12.385,1.174,17.204,3.49l8.521-13.169
		c-2.338-1.113-5.076-2.055-8.156-2.805C724.11,16.72,718.733,16.11,713.052,16.11z"/>
	<path fill="#FFFFFF" d="M692.081,99.878c-5.188,0-9.378-1.515-12.448-4.504c-3.103-3.015-4.674-6.85-4.674-11.397
		c0-5.185,1.856-9.469,5.519-12.729c3.53-3.145,8.013-4.738,13.326-4.738c4.911,0,8.948,1.343,11.998,3.989
		c3.212,2.794,4.839,6.608,4.839,11.338c0,5.462-1.848,9.904-5.492,13.204C701.617,98.251,697.221,99.878,692.081,99.878z
		 M693.804,68.537c-4.801,0-8.83,1.422-11.976,4.223c-3.213,2.861-4.842,6.637-4.842,11.217c0,3.979,1.365,7.325,4.06,9.944
		c2.681,2.607,6.393,3.93,11.035,3.93c4.618,0,8.556-1.451,11.706-4.312c3.203-2.9,4.826-6.836,4.826-11.702
		c0-4.118-1.394-7.416-4.142-9.808C701.801,69.713,698.212,68.537,693.804,68.537z"/>
</g>
<path opacity="0" fill="#FFFFFF" d="M761.012,127.856H632.488V0.143h128.523V127.856z M634.516,125.83h124.469V2.17H634.516V125.83z
	"/>
<g>
	<polygon opacity="0.5" points="872.759,18.109 869.168,35.803 818.039,118.002 786.153,118.002 834.842,40.512 809.276,40.512 
		806.119,55.924 781.844,55.924 789.458,18.109 	"/>
	<g>
		<linearGradient id="SVGID_10_" gradientUnits="userSpaceOnUse" x1="823.2471" y1="113.9473" x2="823.2471" y2="14.0552">
			<stop  offset="0" style="stop-color:#2B2B2B"/>
			<stop  offset="0.497" style="stop-color:#E6E6E6"/>
			<stop  offset="0.6242" style="stop-color:#B2B2B2"/>
			<stop  offset="1" style="stop-color:#000000"/>
		</linearGradient>
		<polygon fill="url(#SVGID_10_)" points="868.705,14.055 865.113,31.749 813.984,113.947 782.1,113.947 830.788,36.458 
			805.222,36.458 802.064,51.87 777.789,51.87 785.403,14.055 		"/>
		<path d="M868.705,14.055l-3.592,17.694l-51.129,82.198H782.1l48.688-77.49h-25.566l-3.157,15.412h-24.275l7.614-37.815H868.705
			 M871.186,12.027h-2.48h-83.302h-1.659l-0.328,1.627l-7.614,37.815l-0.489,2.427h2.477h24.275h1.653l0.332-1.62l2.825-13.792
			h20.244l-46.736,74.383l-1.952,3.106h3.669h31.885h1.126l0.596-0.956l51.128-82.199l0.194-0.31l0.073-0.358l3.591-17.694
			L871.186,12.027L871.186,12.027z"/>
	</g>
	<polyline fill="none" points="868.705,14.055 865.113,31.749 813.984,113.947 782.1,113.947 830.788,36.458 805.222,36.458 
		802.064,51.87 777.789,51.87 785.403,14.055 868.705,14.055 	"/>
	<polygon fill="none" points="871.186,12.027 868.705,12.027 785.403,12.027 783.744,12.027 783.416,13.655 775.802,51.47 
		775.313,53.896 777.789,53.896 802.064,53.896 803.718,53.896 804.05,52.276 806.875,38.485 827.119,38.485 780.383,112.868 
		778.431,115.975 782.1,115.975 813.984,115.975 815.11,115.975 815.706,115.019 866.836,32.82 867.028,32.51 867.102,32.152 
		870.692,14.458 871.186,12.027 	"/>
	<path fill="#FFFFFF" d="M812.857,111.92h-27.09l48.688-77.49h-30.887l-3.158,15.412h-20.146l6.799-33.761h79.16l-3.12,15.062
		L812.857,111.92z M789.434,109.894h22.298l49.556-79.666l2.459-12.119h-75.022l-5.983,29.706h16.017l3.157-15.412h36.208
		L789.434,109.894z"/>
</g>
<path opacity="0" fill="#FFFFFF" d="M887.51,127.856H758.984V0.143H887.51V127.856z M761.012,125.83h124.471V2.17H761.012V125.83z"
	/>
<path opacity="0" fill="#FFFFFF" d="M1014.008,127.856H885.482V0.143h128.525V127.856z M887.51,125.83h124.471V2.17H887.51V125.83z"
	/>
<path opacity="0" fill="#FFFFFF" d="M1140.502,127.856H1011.98V0.143h128.521V127.856z M1014.008,125.83h124.467V2.17h-124.467
	V125.83z"/>
<path opacity="0" fill="#FFFFFF" d="M1267,127.856h-128.525V0.143H1267V127.856z M1140.502,125.83h124.471V2.17h-124.471V125.83z"/>
</svg>
