<?xml version="1.0" encoding="utf-8"?>
<!-- Generator: Adobe Illustrator 15.0.0, SVG Export Plug-In . SVG Version: 6.00 Build 0)  -->
<!DOCTYPE svg PUBLIC "-//W3C//DTD SVG 1.1//EN" "http://www.w3.org/Graphics/SVG/1.1/DTD/svg11.dtd">
<svg version="1.1" id="Layer_1" xmlns="http://www.w3.org/2000/svg" xmlns:xlink="http://www.w3.org/1999/xlink" x="0px" y="0px"
	 width="256px" height="256px" viewBox="0 0 256 256" enable-background="new 0 0 256 256" xml:space="preserve">
<g>
	<path fill="#BCBEC0" d="M101.931,247.319c-1.243,0-2.25-1.008-2.25-2.25v-51.38c0-1.242,1.007-2.25,2.25-2.25H154
		c1.242,0,2.25,1.008,2.25,2.25v51.38c0,1.242-1.008,2.25-2.25,2.25H101.931z"/>
	<path fill="#FFFFFF" d="M154,193.689v51.38h-52.069v-51.38H154 M154,189.189h-52.069c-2.485,0-4.5,2.015-4.5,4.5v51.38
		c0,2.485,2.015,4.5,4.5,4.5H154c2.485,0,4.5-2.015,4.5-4.5v-51.38C158.5,191.204,156.485,189.189,154,189.189L154,189.189z"/>
	
		<rect x="101.931" y="193.689" fill="none" stroke="#000000" stroke-width="6" stroke-linejoin="round" stroke-miterlimit="10" width="52.069" height="51.38"/>
</g>
<g>
	<linearGradient id="SVGID_1_" gradientUnits="userSpaceOnUse" x1="127.9658" y1="195.6895" x2="127.9658" y2="5.4834">
		<stop  offset="0" style="stop-color:#3655A5"/>
		<stop  offset="0.5" style="stop-color:#3CC6EF"/>
		<stop  offset="1" style="stop-color:#3655A5"/>
	</linearGradient>
	<path fill="url(#SVGID_1_)" d="M79.517,195.689c-1.104,0-2-0.896-2-2V7.483c0-1.104,0.896-2,2-2h96.897c1.104,0,2,0.896,2,2
		v186.207c0,1.104-0.896,2-2,2H79.517z"/>
	<path fill="#FFFFFF" d="M176.414,7.483v186.207H79.517V7.483H176.414 M176.414,3.483H79.517c-2.209,0-4,1.791-4,4v186.207
		c0,2.209,1.791,4,4,4h96.897c2.209,0,4-1.791,4-4V7.483C180.414,5.274,178.623,3.483,176.414,3.483L176.414,3.483z"/>
	
		<rect x="79.517" y="7.483" fill="none" stroke="#000000" stroke-width="5" stroke-linejoin="round" stroke-miterlimit="10" width="96.897" height="186.207"/>
</g>
<g>
	<rect x="109.138" y="218.104" width="9.655" height="9.655"/>
	<rect x="137.139" y="218.104" width="9.654" height="9.655"/>
</g>
<polygon fill="#0F1239" stroke="#84D0D6" stroke-width="3" stroke-linejoin="round" stroke-miterlimit="10" points="
	127.966,178.655 113.197,160.242 98.428,141.829 127.966,141.829 157.504,141.829 142.734,160.242 "/>
<g id="path1334">
	<path fill="#D5EAF2" d="M127.498,126.493c-5.742,0-10.414-4.672-10.414-10.415c0-4.667,3.129-8.753,7.55-10.014v-5.732
		c-0.023-0.94-0.412-1.969-1.068-2.808c-0.869-0.822-13.013-12.314-13.013-12.314l0.017-0.06c-1.447-1.688-2.846-4.29-2.846-7.058
		l0.001-8.644c-2.285-1.093-3.775-3.408-3.775-5.966c0-3.66,2.978-6.637,6.638-6.637c3.66,0,6.637,2.977,6.637,6.637
		c0,2.558-1.492,4.873-3.777,5.966c0.001,1.474,0.002,4.36,0.002,8.754c0.022,0.938,0.412,1.968,1.072,2.813l10.112,9.571V36.295
		h-5.375l8.241-14.271l8.241,14.271h-5.383v40.201l10.114-9.574c0.66-0.843,1.05-1.873,1.071-2.836c0-4.297,0.002-6.81,0.003-8.06
		h-3.773V42.752h13.273v13.274h-3.779L147.27,64c0,2.736-1.367,5.31-2.796,7l0.025,0.063l-0.555,0.52
		c-0.154,0.145-11.651,11.029-12.517,11.849c-0.657,0.838-1.047,1.866-1.071,2.829v19.805c4.425,1.26,7.557,5.347,7.557,10.014
		C137.913,121.821,133.24,126.493,127.498,126.493z"/>
	<path fill="#0F1239" d="M127.5,24.024l6.508,11.271h-4.65V78.82l11.854-11.22c0.767-0.955,1.303-2.205,1.332-3.491
		c0-6.719,0.004-9.083,0.004-9.083h-3.774V43.752h11.273v11.274h-3.779L146.27,64c0,2.524-1.385,5.169-3.008,6.852
		c0.027-0.027,0.057-0.054,0.057-0.054c0.001,0-0.015,0.015-0.058,0.055c-0.04,0.037-12.572,11.901-12.572,11.901
		c-0.765,0.951-1.299,2.198-1.332,3.48v14.162c0.001,0.018,0,0.033,0,0.051v6.403c4.31,0.864,7.557,4.666,7.557,9.228
		c0,5.199-4.216,9.415-9.416,9.415c-5.199,0-9.414-4.215-9.414-9.415c0-4.561,3.244-8.364,7.55-9.228v-6.518
		c-0.031-1.284-0.564-2.533-1.329-3.485c0,0-12.533-11.866-12.573-11.902c-0.043-0.041-0.058-0.055-0.058-0.055
		c0,0,0.029,0.027,0.057,0.053c-1.623-1.682-3.007-4.327-3.007-6.85l0.001-9.311c-2.192-0.771-3.775-2.839-3.775-5.299
		c0-3.112,2.524-5.637,5.638-5.637c3.112,0,5.637,2.526,5.637,5.637c0,2.46-1.584,4.528-3.778,5.299
		c0.002,1.137,0.003,4.223,0.003,9.421c0.03,1.285,0.567,2.534,1.332,3.489l11.852,11.218V35.295h-4.643L127.5,24.024 M127.5,20.024
		l-1.732,3l-6.509,11.271l-1.732,3h3.464h2.643v50.967l-8.368-7.92c-0.504-0.667-0.8-1.457-0.817-2.187c0-3.825,0-6.512-0.001-8.108
		c2.306-1.352,3.777-3.838,3.777-6.565c0-4.211-3.426-7.637-7.637-7.637c-4.212,0-7.638,3.426-7.638,7.637
		c0,2.727,1.471,5.214,3.775,6.566l-0.001,8.044c0,3.282,1.771,6.329,3.466,8.132c0.052,0.059,0.108,0.118,0.17,0.176
		c0.177,0.167,8.164,7.727,12.461,11.796c0.5,0.662,0.795,1.452,0.813,2.185l0,4.955c-4.459,1.604-7.55,5.887-7.55,10.742
		c0,6.294,5.12,11.415,11.414,11.415c6.294,0,11.416-5.121,11.416-11.415c0-4.855-3.094-9.138-7.557-10.742v-4.889
		c0.001-0.021,0.001-0.049,0-0.081V86.264c0.024-0.726,0.319-1.505,0.815-2.159c1.215-1.15,12.269-11.615,12.457-11.792
		c0.059-0.055,0.113-0.111,0.163-0.167c1.698-1.802,3.478-4.856,3.478-8.146l-0.002-6.973h1.778h2v-2V43.752v-2h-2h-11.273h-2v2
		v11.274v2h2h1.772c-0.001,1.43-0.002,3.707-0.002,7.083c-0.017,0.688-0.313,1.476-0.815,2.141l-8.37,7.923V37.295h2.65h3.464
		l-1.731-3l-6.509-11.271L127.5,20.024L127.5,20.024z"/>
</g>
</svg>
